<?xml version="1.0" encoding="UTF-8" standalone="no"?>
<svg
   xmlns:dc="http://purl.org/dc/elements/1.1/"
   xmlns:cc="http://creativecommons.org/ns#"
   xmlns:rdf="http://www.w3.org/1999/02/22-rdf-syntax-ns#"
   xmlns:svg="http://www.w3.org/2000/svg"
   xmlns="http://www.w3.org/2000/svg"
   xmlns:sodipodi="http://sodipodi.sourceforge.net/DTD/sodipodi-0.dtd"
   xmlns:inkscape="http://www.inkscape.org/namespaces/inkscape"
   version="1.1"
   width="297mm"
   height="210mm"
   viewBox="0 0 297 210"
   id="svg2"
   inkscape:version="0.91 r13725"
   sodipodi:docname="assembly_concept.svg">
  <sodipodi:namedview
     pagecolor="#ffffff"
     bordercolor="#666666"
     borderopacity="1"
     objecttolerance="10"
     gridtolerance="10"
     guidetolerance="10"
     inkscape:pageopacity="0"
     inkscape:pageshadow="2"
     inkscape:window-width="1920"
     inkscape:window-height="996"
     id="namedview73"
     showgrid="false"
     inkscape:zoom="0.31716403"
     inkscape:cx="1415.144"
     inkscape:cy="228.24515"
     inkscape:window-x="0"
     inkscape:window-y="29"
     inkscape:window-maximized="1"
     inkscape:current-layer="svg2" />
  <metadata
     id="metadata75">
    <rdf:RDF>
      <cc:Work
         rdf:about="">
        <dc:format>image/svg+xml</dc:format>
        <dc:type
           rdf:resource="http://purl.org/dc/dcmitype/StillImage" />
        <dc:title></dc:title>
      </cc:Work>
    </rdf:RDF>
  </metadata>
  <!-- Working space 0 0 297 210 -->
  <defs
     id="defs4">
    <radialGradient
       r="19.571"
       gradientTransform="matrix(.14777 .23089 -.24680 .15795 -26.318 -62.617)"
       cx="282.65"
       cy="29.149"
       gradientUnits="userSpaceOnUse"
       id="radialGradient3661">
      <stop
         id="stop7"
         offset="0"
         stop-color="#71b2f8" />
      <stop
         id="stop9"
         offset="1"
         stop-color="#002795" />
    </radialGradient>
    <radialGradient
       r="19.571"
       gradientTransform="matrix(.26631 .065024 -.17931 .73438 -60.668 -36.938)"
       cx="270.58"
       cy="33.9"
       gradientUnits="userSpaceOnUse"
       id="radialGradient3817">
      <stop
         id="stop12"
         offset="0"
         stop-color="#ff6d0f" />
      <stop
         id="stop14"
         offset="1"
         stop-color="#ff1000" />
    </radialGradient>
  </defs>
  <!-- Set display:none to hide FreeCAD Logo -->
  <text
     x="952.99103"
     y="-119.37652"
     id="text7009">
    <tspan
       y="-119.37652"
       x="952.99103"
       sodipodi:role="line"
       style="font-style:normal;font-weight:normal;font-size:2.82222223px;text-align:center;text-anchor:start;fill:#000000;fill-opacity:1;stroke:none"
       dy="-0.28222221"
       id="tspan7011">182,27 mm</tspan>
  </text>
  <g
     id="g4624"
     transform="translate(-346.14407,80.974576)">
    <g
       id="g7921">
      <path
         inkscape:connector-curvature="0"
         style="fill:none;stroke:#000000;stroke-width:0.2000013"
         d="m 467.58384,-43.133862 0.107,0 0.10701,0.003 0.106,0.004 0.108,0.006 0.107,0.008 0.107,0.009 0.108,0.011 0.108,0.013 0.108,0.014 0.109,0.017 0.109,0.018 0.109,0.02 0.11,0.022 0.11,0.023 0.111,0.026 0.111,0.027 0.11201,0.03 0.112,0.031 0.113,0.033 0.114,0.036 0.114,0.037 0.115,0.04 0.116,0.042 0.116,0.044 0.117,0.046 0.117,0.048 0.118,0.051 0.119,0.053 0.119,0.055 0.12,0.058 0.12101,0.06 0.121,0.063 0.122,0.065 0.123,0.067 0.123,0.07 0.124,0.073 0.124,0.075 0.125,0.078 0.125,0.081 0.126,0.083 0.126,0.086 0.12701,0.089 0.127,0.091 0.127,0.094 0.128,0.097 0.128,0.1 0.129,0.102 0.128,0.105 0.129,0.109 0.13,0.111 0.129,0.11301 0.129,0.117 0.13,0.12 0.129,0.122 0.13,0.126 0.129,0.128 0.13,0.131 0.12901,0.134 0.129,0.137 0.129,0.14 0.129,0.143 0.129,0.145 0.128,0.14901 0.128,0.151 0.128,0.154 0.127,0.157 0.127,0.16 0.126,0.163 0.126,0.165 0.12501,0.169 0.12499,0.171 0.12401,0.174 0.123,0.17601 0.123,0.18 0.122,0.182 0.121,0.185 0.12,0.187 0.12,0.19 0.118,0.193 0.118,0.195 0.117,0.19801 0.11601,0.201 0.115,0.203 0.114,0.206 0.112,0.208 0.112,0.21 0.111,0.213 0.109,0.21601 0.108,0.217 0.107,0.221 0.106,0.222 0.104,0.225 0.104,0.227 0.102,0.229 0.1,0.23101 0.099,0.234 0.098,0.236 0.096,0.237 0.095,0.24 0.094,0.242 0.091,0.244 0.091,0.24601 0.089,0.248 0.087,0.249 0.086,0.252 0.084,0.253 0.082,0.255 0.081,0.25701 0.079,0.259 0.078,0.26 0.075,0.262 0.074,0.263 0.073,0.265 0.07,0.26601 0.069,0.268 0.067,0.27 0.065,0.271 0.064,0.272 0.061,0.27301 0.06,0.275 0.058,0.276 0.056,0.277 0.054,0.278 0.052,0.28 0.05,0.28001 0.048,0.282 0.047,0.282 0.044,0.284 0.043,0.284 0.04,0.28601 0.039,0.286 0.036,0.287 0.035,0.287 0.032,0.289 0.031,0.289 0.029,0.28901 0.026,0.29 0.025,0.291 0.022,0.291 0.021,0.292 0.018,0.29201 0.017,0.292 0.014,0.293 0.012,0.293 0.011,0.293 0.008,0.29401 0.006,0.293 0.004,0.294 0.002,0.294 0,0.294 -0.002,0.293 -0.004,0.29401 -0.006,0.294 -0.008,0.293 -0.011,0.293 -0.012,0.293 -0.014,0.29301 -0.017,0.293 -0.018,0.292 -0.021,0.291 -0.022,0.292 -0.025,0.29001 -0.026,0.29 -0.029,0.29 -0.031,0.289 -0.032,0.288 -0.035,0.288 -0.036,0.28701 -0.039,0.286 -0.04,0.285 -0.043,0.285 -0.044,0.283 -0.047,0.28301 -0.048,0.281 -0.05,0.281 -0.052,0.279 -0.054,0.2790004 -0.056,0.277 -0.058,0.2760096 -0.06,0.274 -0.061,0.274 -0.064,0.272 -0.065,0.271 -0.067,0.269 -0.069,0.26801 -0.07,0.267 -0.073,0.265 -0.074,0.263 -0.075,0.262 -0.078,0.26001 -0.079,0.259 -0.081,0.256 -0.082,0.256 -0.084,0.253 -0.086,0.25101 -0.087,0.25 -0.089,0.248 -0.091,0.246 -0.091,0.243 -0.094,0.242 -0.095,0.24 -0.096,0.238 -0.098,0.23601 -0.099,0.233 -0.1,0.232 -0.102,0.229 -0.104,0.227 -0.104,0.225 -0.106,0.222 -0.107,0.22001 -0.108,0.218 -0.109,0.215 -0.111,0.21300005 -0.112,0.211 -0.112,0.208 -0.114,0.20601 -0.115,0.203 -0.11601,0.19999995 -0.117,0.198 -0.118,0.19500005 -0.118,0.193 -0.12,0.19 -0.12,0.18799995 -0.121,0.18501 -0.122,0.182 -0.123,0.179 -0.123,0.177 -0.12401,0.174 -0.12499,0.171 -0.12501,0.168 -0.126,0.166 -0.126,0.162 -0.127,0.16001 -0.127,0.157 -0.128,0.155 -0.128,0.151 -0.128,0.148 -0.129,0.146 -0.129,0.143 -0.129,0.139 -0.129,0.137 -0.12901,0.134 -0.13,0.132 -0.129,0.12801 -0.13,0.12499 -0.129,0.12301 -0.13,0.119 -0.129,0.117 -0.129,0.114 -0.13,0.111 -0.129,0.108 -0.128,0.106 -0.129,0.102 -0.128,0.1 -0.128,0.097 -0.127,0.094 -0.127,0.091 -0.12701,0.089 -0.126,0.086 -0.126,0.083 -0.125,0.08 -0.125,0.078 -0.124,0.076 -0.124,0.072 -0.123,0.07 -0.123,0.068 -0.122,0.065 -0.121,0.062 -0.12101,0.061 -0.12,0.057 -0.119,0.056 -0.119,0.053 -0.118,0.05 -0.117,0.049 -0.117,0.046 -0.116,0.044 -0.116,0.042 -0.115,0.039 -0.114,0.038 -0.114,0.035 -0.113,0.034 -0.112,0.031 -0.11201,0.029 -0.111,0.028 -0.111,0.025 -0.11,0.024 -0.11,0.022 -0.109,0.02 -0.109,0.018 -0.109,0.016 -0.108,0.015 -0.108,0.013 -0.108,0.011 -0.107,0.009 -0.107,0.008 -0.108,0.005 -0.106,0.005 -0.10701,0.002 -0.107,10e-4 -80.00051,0 -0.107,-10e-4 -0.10701,-0.002 -0.107,-0.005 -0.107,-0.005 -0.107,-0.008 -0.108,-0.009 -0.107,-0.011 -0.108,-0.013 -0.108,-0.015 -0.109,-0.016 -0.109,-0.018 -0.109,-0.02 -0.11,-0.022 -0.11,-0.024 -0.111,-0.025 -0.11201,-0.028 -0.111,-0.029 -0.113,-0.031 -0.113,-0.034 -0.113,-0.035 -0.115,-0.038 -0.114,-0.039 -0.116,-0.042 -0.116,-0.044 -0.117,-0.046 -0.117,-0.049 -0.118,-0.05 -0.119,-0.053 -0.12001,-0.056 -0.12,-0.057 -0.12,-0.061 -0.122,-0.062 -0.122,-0.065 -0.122,-0.068 -0.123,-0.07 -0.124,-0.072 -0.124,-0.076 -0.125,-0.078 -0.125,-0.08 -0.126,-0.083 -0.126,-0.086 -0.12701,-0.089 -0.127,-0.091 -0.128,-0.094 -0.127,-0.097 -0.129,-0.1 -0.128,-0.102 -0.129,-0.106 -0.129,-0.108 -0.129,-0.111 -0.129,-0.114 -0.13,-0.11701 -0.129,-0.119 -0.13001,-0.123 -0.129,-0.125 -0.13,-0.128 -0.129,-0.132 -0.129,-0.134 -0.13,-0.137 -0.129,-0.139 -0.129,-0.143 -0.128,-0.14601 -0.128,-0.148 -0.128,-0.151 -0.128,-0.155 -0.12701,-0.157 -0.127,-0.16 -0.126,-0.162 -0.126,-0.166 -0.125,-0.168 -0.125,-0.171 -0.124,-0.174 -0.123,-0.177 -0.123,-0.17901 -0.122,-0.182 -0.121,-0.185 -0.121,-0.18799995 -0.11901,-0.19 -0.119,-0.193 -0.118,-0.19500005 -0.116,-0.198 -0.116,-0.20000995 -0.115,-0.203 -0.114,-0.206 -0.113,-0.208 -0.111,-0.211 -0.111,-0.21300005 -0.109,-0.215 -0.109,-0.21801 -0.107,-0.22 -0.105,-0.222 -0.10501,-0.225 -0.103,-0.227 -0.102,-0.229 -0.1,-0.23201 -0.1,-0.233 -0.097,-0.236 -0.097,-0.238 -0.095,-0.24 -0.093,-0.242 -0.092,-0.24301 -0.09,-0.246 -0.089,-0.248 -0.087,-0.25 -0.086,-0.251 -0.084,-0.253 -0.083,-0.256 -0.08,-0.25601 -0.08,-0.259 -0.077,-0.26 -0.076,-0.262 -0.074,-0.263 -0.072,-0.26501 -0.071,-0.267 -0.068,-0.268 -0.067,-0.269 -0.066,-0.271 -0.063,-0.272 -0.061,-0.274 -0.06,-0.27401 -0.058,-0.2759996 -0.056,-0.277 -0.054,-0.2790004 -0.052,-0.279 -0.05,-0.281 -0.049,-0.28101 -0.046,-0.283 -0.044,-0.283 -0.043,-0.285 -0.04,-0.285 -0.039,-0.28601 -0.037,-0.287 -0.034,-0.288 -0.033,-0.288 -0.03,-0.289 -0.029,-0.29 -0.027,-0.29001 -0.024,-0.29 -0.023,-0.292 -0.02,-0.291 -0.019,-0.29201 -0.016,-0.293 -0.014,-0.293 -0.013,-0.293 -0.01,-0.293 -0.008,-0.293 -0.006,-0.29401 -0.004,-0.294 -0.002,-0.293 0,-0.294 0.002,-0.294 0.004,-0.29401 0.006,-0.293 0.008,-0.294 0.01,-0.293 0.013,-0.293 0.014,-0.29301 0.016,-0.292 0.019,-0.292 0.02,-0.292 0.023,-0.291 0.024,-0.291 0.027,-0.29001 0.029,-0.289 0.03,-0.289 0.033,-0.289 0.034,-0.287 0.037,-0.28701 0.039,-0.286 0.04,-0.286 0.043,-0.284 0.044,-0.284 0.046,-0.28201 0.049,-0.282 0.05,-0.28 0.052,-0.28 0.054,-0.278 0.056,-0.277 0.058,-0.27601 0.06,-0.275 0.061,-0.273 0.063,-0.272 0.066,-0.271 0.067,-0.27 0.068,-0.26801 0.071,-0.266 0.072,-0.265 0.074,-0.263 0.076,-0.262 0.077,-0.26001 0.08,-0.259 0.08,-0.257 0.083,-0.255 0.084,-0.253 0.086,-0.252 0.087,-0.249 0.089,-0.24801 0.09,-0.246 0.092,-0.244 0.093,-0.242 0.095,-0.24 0.097,-0.237 0.097,-0.23601 0.1,-0.234 0.1,-0.231 0.102,-0.229 0.103,-0.227 0.10501,-0.225 0.105,-0.222 0.107,-0.22101 0.109,-0.217 0.109,-0.216 0.111,-0.213 0.111,-0.21 0.113,-0.208 0.114,-0.206 0.115,-0.20301 0.116,-0.201 0.116,-0.198 0.118,-0.195 0.119,-0.193 0.11901,-0.19 0.121,-0.187 0.121,-0.185 0.122,-0.18201 0.123,-0.18 0.123,-0.176 0.124,-0.174 0.125,-0.171 0.125,-0.169 0.126,-0.165 0.126,-0.163 0.127,-0.16 0.12701,-0.15701 0.128,-0.154 0.128,-0.151 0.128,-0.149 0.128,-0.145 0.129,-0.143 0.129,-0.14 0.13,-0.137 0.129,-0.134 0.129,-0.131 0.13,-0.128 0.129,-0.12601 0.13001,-0.122 0.129,-0.12 0.13,-0.117 0.129,-0.113 0.129,-0.111 0.129,-0.109 0.129,-0.105 0.128,-0.102 0.129,-0.1 0.127,-0.097 0.128,-0.094 0.127,-0.091 0.12701,-0.089 0.126,-0.086 0.126,-0.083 0.125,-0.081 0.125,-0.078 0.124,-0.075 0.124,-0.073 0.123,-0.07 0.122,-0.067 0.122,-0.065 0.122,-0.063 0.12,-0.06 0.12,-0.058 0.12001,-0.055 0.119,-0.053 0.118,-0.051 0.117,-0.048 0.117,-0.046 0.116,-0.044 0.116,-0.042 0.114,-0.04 0.115,-0.037 0.113,-0.036 0.113,-0.033 0.113,-0.031 0.111,-0.03 0.11201,-0.027 0.111,-0.026 0.11,-0.023 0.11,-0.022 0.109,-0.02 0.109,-0.018 0.109,-0.017 0.108,-0.014 0.108,-0.013 0.107,-0.011 0.108,-0.009 0.107,-0.008 0.107,-0.006 0.107,-0.004 0.10701,-0.003 0.107,0 z"
         id="path7253" />
      <g
         id="g7819"
         transform="translate(7.393161,1.2584104)">
        <g
           style="fill:#000000;fill-opacity:1"
           inkscape:tile-y0="10.411864"
           inkscape:tile-x0="154.53475"
           transform="translate(370.5954,-163.08516)"
           id="use6055">
          <circle
             id="circle4402"
             style="fill:none;stroke:#000000;stroke-width:0.1;stroke-miterlimit:4;stroke-dasharray:none"
             r="8"
             cy="-110"
             cx="50"
             transform="scale(1,-1)" />
          <path
             inkscape:connector-curvature="0"
             style="fill:none;fill-rule:evenodd;stroke:#000000;stroke-width:0.1;stroke-miterlimit:4;stroke-dasharray:none"
             d="M 50,121 A 11,11 0 0 0 50,99 L 24.000009,99 A 2,2 0 0 0 22,100.99999 l 0,18.00002 A 2,2 0 0 0 24.000009,121 L 50,121"
             id="path4404" />
          <circle
             id="circle4406"
             style="fill:none;stroke:#000000;stroke-width:0.1;stroke-miterlimit:4;stroke-dasharray:none"
             r="1.5"
             cy="-103"
             cx="31"
             transform="scale(1,-1)" />
          <circle
             id="circle4408"
             style="fill:none;stroke:#000000;stroke-width:0.1;stroke-miterlimit:4;stroke-dasharray:none"
             r="1.5"
             cy="-110"
             cx="26"
             transform="scale(1,-1)" />
          <circle
             id="circle4410"
             style="fill:none;stroke:#000000;stroke-width:0.1;stroke-miterlimit:4;stroke-dasharray:none"
             r="1.5"
             cy="-110"
             cx="36"
             transform="scale(1,-1)" />
          <circle
             id="circle4412"
             style="fill:none;stroke:#000000;stroke-width:0.1;stroke-miterlimit:4;stroke-dasharray:none"
             r="1.5"
             cy="-117"
             cx="31"
             transform="scale(1,-1)" />
        </g>
        <path
           d="m 402.87266,-46.22004 a 1.5,1.5 0 0 0 -1.5,-1.5 1.5,1.5 0 0 0 -1.5,1.5 1.5,1.5 0 0 0 1.5,1.5 1.5,1.5 0 0 0 1.5,-1.5 z m 5,-7 a 1.5,1.5 0 0 0 -1.5,-1.5 1.5,1.5 0 0 0 -1.5,1.5 1.5,1.5 0 0 0 1.5,1.5 1.5,1.5 0 0 0 1.5,-1.5 z m -10,0 a 1.5,1.5 0 0 0 -1.5,-1.5 1.5,1.5 0 0 0 -1.5,1.5 1.5,1.5 0 0 0 1.5,1.5 1.5,1.5 0 0 0 1.5,-1.5 z m 5,-7 a 1.5,1.5 0 0 0 -1.5,-1.5 1.5,1.5 0 0 0 -1.5,1.5 1.5,1.5 0 0 0 1.5,1.5 1.5,1.5 0 0 0 1.5,-1.5 z m -17,7 a 5.5,5.5 0 0 0 -5.5,-5.5 5.5,5.5 0 0 0 -5.5,5.5 5.5,5.5 0 0 0 5.5,5.5 5.5,5.5 0 0 0 5.5,-5.5 z m 24.5,-9.000007 a 2,2 0 0 0 -2.00002,-1.999993 l -14.26793,0 a 2,2 0 0 0 -1.73205,1 2,2 0 0 1 -1.73205,1 l -10.26795,0 a 9,9 0 1 0 0,18 l 10.26795,0 a 2,2 0 0 1 1.73205,1 2,2 0 0 0 1.73205,1 l 14.26793,0 a 2,2 0 0 0 2,-1.999998 l 2e-5,-18.000009"
           style="fill:none;stroke:#000000;stroke-width:0.1;stroke-miterlimit:4;stroke-dasharray:none"
           id="circle6819"
           inkscape:connector-curvature="0" />
      </g>
      <g
         transform="translate(47.976896,1.4157117)"
         id="g7823">
        <g
           style="fill:#000000;fill-opacity:1"
           inkscape:tile-y0="10.411864"
           inkscape:tile-x0="154.53475"
           transform="translate(370.5954,-163.08516)"
           id="use7825">
          <circle
             id="circle4416"
             style="fill:none;stroke:#000000;stroke-width:0.1;stroke-miterlimit:4;stroke-dasharray:none"
             r="8"
             cy="-110"
             cx="50"
             transform="scale(1,-1)" />
          <path
             inkscape:connector-curvature="0"
             style="fill:none;fill-rule:evenodd;stroke:#000000;stroke-width:0.1;stroke-miterlimit:4;stroke-dasharray:none"
             d="M 50,121 A 11,11 0 0 0 50,99 L 24.000009,99 A 2,2 0 0 0 22,100.99999 l 0,18.00002 A 2,2 0 0 0 24.000009,121 L 50,121"
             id="path4418" />
          <circle
             id="circle4420"
             style="fill:none;stroke:#000000;stroke-width:0.1;stroke-miterlimit:4;stroke-dasharray:none"
             r="1.5"
             cy="-103"
             cx="31"
             transform="scale(1,-1)" />
          <circle
             id="circle4422"
             style="fill:none;stroke:#000000;stroke-width:0.1;stroke-miterlimit:4;stroke-dasharray:none"
             r="1.5"
             cy="-110"
             cx="26"
             transform="scale(1,-1)" />
          <circle
             id="circle4424"
             style="fill:none;stroke:#000000;stroke-width:0.1;stroke-miterlimit:4;stroke-dasharray:none"
             r="1.5"
             cy="-110"
             cx="36"
             transform="scale(1,-1)" />
          <circle
             id="circle4426"
             style="fill:none;stroke:#000000;stroke-width:0.1;stroke-miterlimit:4;stroke-dasharray:none"
             r="1.5"
             cy="-117"
             cx="31"
             transform="scale(1,-1)" />
        </g>
        <path
           inkscape:connector-curvature="0"
           id="path7827"
           style="fill:none;stroke:#000000;stroke-width:0.1;stroke-miterlimit:4;stroke-dasharray:none"
           d="m 402.87266,-46.22004 a 1.5,1.5 0 0 0 -1.5,-1.5 1.5,1.5 0 0 0 -1.5,1.5 1.5,1.5 0 0 0 1.5,1.5 1.5,1.5 0 0 0 1.5,-1.5 z m 5,-7 a 1.5,1.5 0 0 0 -1.5,-1.5 1.5,1.5 0 0 0 -1.5,1.5 1.5,1.5 0 0 0 1.5,1.5 1.5,1.5 0 0 0 1.5,-1.5 z m -10,0 a 1.5,1.5 0 0 0 -1.5,-1.5 1.5,1.5 0 0 0 -1.5,1.5 1.5,1.5 0 0 0 1.5,1.5 1.5,1.5 0 0 0 1.5,-1.5 z m 5,-7 a 1.5,1.5 0 0 0 -1.5,-1.5 1.5,1.5 0 0 0 -1.5,1.5 1.5,1.5 0 0 0 1.5,1.5 1.5,1.5 0 0 0 1.5,-1.5 z m -17,7 a 5.5,5.5 0 0 0 -5.5,-5.5 5.5,5.5 0 0 0 -5.5,5.5 5.5,5.5 0 0 0 5.5,5.5 5.5,5.5 0 0 0 5.5,-5.5 z m 24.5,-9.000007 a 2,2 0 0 0 -2.00002,-1.999993 l -14.26793,0 a 2,2 0 0 0 -1.73205,1 2,2 0 0 1 -1.73205,1 l -10.26795,0 a 9,9 0 1 0 0,18 l 10.26795,0 a 2,2 0 0 1 1.73205,1 2,2 0 0 0 1.73205,1 l 14.26793,0 a 2,2 0 0 0 2,-1.999998 l 2e-5,-18.000009" />
      </g>
      <g
         id="g7899">
        <g
           inkscape:transform-center-y="18.0366"
           inkscape:transform-center-x="-11.626394"
           transform="matrix(0.53586028,0.84430667,-0.84430667,0.53586028,219.7975,-344.50656)"
           id="g7829">
          <g
             style="fill:#000000;fill-opacity:1"
             inkscape:tile-y0="10.411864"
             inkscape:tile-x0="154.53475"
             transform="translate(370.5954,-163.08516)"
             id="use7831">
            <circle
               id="circle4430"
               style="fill:none;stroke:#000000;stroke-width:0.1;stroke-miterlimit:4;stroke-dasharray:none"
               r="8"
               cy="-110"
               cx="50"
               transform="scale(1,-1)" />
            <path
               inkscape:connector-curvature="0"
               style="fill:none;fill-rule:evenodd;stroke:#000000;stroke-width:0.1;stroke-miterlimit:4;stroke-dasharray:none"
               d="M 50,121 A 11,11 0 0 0 50,99 L 24.000009,99 A 2,2 0 0 0 22,100.99999 l 0,18.00002 A 2,2 0 0 0 24.000009,121 L 50,121"
               id="path4432" />
            <circle
               id="circle4434"
               style="fill:none;stroke:#000000;stroke-width:0.1;stroke-miterlimit:4;stroke-dasharray:none"
               r="1.5"
               cy="-103"
               cx="31"
               transform="scale(1,-1)" />
            <circle
               id="circle4436"
               style="fill:none;stroke:#000000;stroke-width:0.1;stroke-miterlimit:4;stroke-dasharray:none"
               r="1.5"
               cy="-110"
               cx="26"
               transform="scale(1,-1)" />
            <circle
               id="circle4438"
               style="fill:none;stroke:#000000;stroke-width:0.1;stroke-miterlimit:4;stroke-dasharray:none"
               r="1.5"
               cy="-110"
               cx="36"
               transform="scale(1,-1)" />
            <circle
               id="circle4440"
               style="fill:none;stroke:#000000;stroke-width:0.1;stroke-miterlimit:4;stroke-dasharray:none"
               r="1.5"
               cy="-117"
               cx="31"
               transform="scale(1,-1)" />
          </g>
          <path
             inkscape:connector-curvature="0"
             id="path7833"
             style="fill:none;stroke:#000000;stroke-width:0.1;stroke-miterlimit:4;stroke-dasharray:none"
             d="m 402.87266,-46.22004 a 1.5,1.5 0 0 0 -1.5,-1.5 1.5,1.5 0 0 0 -1.5,1.5 1.5,1.5 0 0 0 1.5,1.5 1.5,1.5 0 0 0 1.5,-1.5 z m 5,-7 a 1.5,1.5 0 0 0 -1.5,-1.5 1.5,1.5 0 0 0 -1.5,1.5 1.5,1.5 0 0 0 1.5,1.5 1.5,1.5 0 0 0 1.5,-1.5 z m -10,0 a 1.5,1.5 0 0 0 -1.5,-1.5 1.5,1.5 0 0 0 -1.5,1.5 1.5,1.5 0 0 0 1.5,1.5 1.5,1.5 0 0 0 1.5,-1.5 z m 5,-7 a 1.5,1.5 0 0 0 -1.5,-1.5 1.5,1.5 0 0 0 -1.5,1.5 1.5,1.5 0 0 0 1.5,1.5 1.5,1.5 0 0 0 1.5,-1.5 z m -17,7 a 5.5,5.5 0 0 0 -5.5,-5.5 5.5,5.5 0 0 0 -5.5,5.5 5.5,5.5 0 0 0 5.5,5.5 5.5,5.5 0 0 0 5.5,-5.5 z m 24.5,-9.000007 a 2,2 0 0 0 -2.00002,-1.999993 l -14.26793,0 a 2,2 0 0 0 -1.73205,1 2,2 0 0 1 -1.73205,1 l -10.26795,0 a 9,9 0 1 0 0,18 l 10.26795,0 a 2,2 0 0 1 1.73205,1 2,2 0 0 0 1.73205,1 l 14.26793,0 a 2,2 0 0 0 2,-1.999998 l 2e-5,-18.000009" />
        </g>
        <g
           id="g7875"
           transform="matrix(-0.54141311,0.84075671,-0.84075671,-0.54141311,651.65253,-366.6084)"
           inkscape:transform-center-x="12.002944"
           inkscape:transform-center-y="17.795857">
          <g
             style="fill:#000000;fill-opacity:1"
             inkscape:tile-y0="10.411864"
             inkscape:tile-x0="154.53475"
             transform="translate(370.5954,-163.08516)"
             id="use7877">
            <circle
               id="circle4444"
               style="fill:none;stroke:#000000;stroke-width:0.1;stroke-miterlimit:4;stroke-dasharray:none"
               r="8"
               cy="-110"
               cx="50"
               transform="scale(1,-1)" />
            <path
               inkscape:connector-curvature="0"
               style="fill:none;fill-rule:evenodd;stroke:#000000;stroke-width:0.1;stroke-miterlimit:4;stroke-dasharray:none"
               d="M 50,121 A 11,11 0 0 0 50,99 L 24.000009,99 A 2,2 0 0 0 22,100.99999 l 0,18.00002 A 2,2 0 0 0 24.000009,121 L 50,121"
               id="path4446" />
            <circle
               id="circle4448"
               style="fill:none;stroke:#000000;stroke-width:0.1;stroke-miterlimit:4;stroke-dasharray:none"
               r="1.5"
               cy="-103"
               cx="31"
               transform="scale(1,-1)" />
            <circle
               id="circle4450"
               style="fill:none;stroke:#000000;stroke-width:0.1;stroke-miterlimit:4;stroke-dasharray:none"
               r="1.5"
               cy="-110"
               cx="26"
               transform="scale(1,-1)" />
            <circle
               id="circle4452"
               style="fill:none;stroke:#000000;stroke-width:0.1;stroke-miterlimit:4;stroke-dasharray:none"
               r="1.5"
               cy="-110"
               cx="36"
               transform="scale(1,-1)" />
            <circle
               id="circle4454"
               style="fill:none;stroke:#000000;stroke-width:0.1;stroke-miterlimit:4;stroke-dasharray:none"
               r="1.5"
               cy="-117"
               cx="31"
               transform="scale(1,-1)" />
          </g>
          <path
             d="m 402.87266,-46.22004 a 1.5,1.5 0 0 0 -1.5,-1.5 1.5,1.5 0 0 0 -1.5,1.5 1.5,1.5 0 0 0 1.5,1.5 1.5,1.5 0 0 0 1.5,-1.5 z m 5,-7 a 1.5,1.5 0 0 0 -1.5,-1.5 1.5,1.5 0 0 0 -1.5,1.5 1.5,1.5 0 0 0 1.5,1.5 1.5,1.5 0 0 0 1.5,-1.5 z m -10,0 a 1.5,1.5 0 0 0 -1.5,-1.5 1.5,1.5 0 0 0 -1.5,1.5 1.5,1.5 0 0 0 1.5,1.5 1.5,1.5 0 0 0 1.5,-1.5 z m 5,-7 a 1.5,1.5 0 0 0 -1.5,-1.5 1.5,1.5 0 0 0 -1.5,1.5 1.5,1.5 0 0 0 1.5,1.5 1.5,1.5 0 0 0 1.5,-1.5 z m -17,7 a 5.5,5.5 0 0 0 -5.5,-5.5 5.5,5.5 0 0 0 -5.5,5.5 5.5,5.5 0 0 0 5.5,5.5 5.5,5.5 0 0 0 5.5,-5.5 z m 24.5,-9.000007 a 2,2 0 0 0 -2.00002,-1.999993 l -14.26793,0 a 2,2 0 0 0 -1.73205,1 2,2 0 0 1 -1.73205,1 l -10.26795,0 a 9,9 0 1 0 0,18 l 10.26795,0 a 2,2 0 0 1 1.73205,1 2,2 0 0 0 1.73205,1 l 14.26793,0 a 2,2 0 0 0 2,-1.999998 l 2e-5,-18.000009"
             style="fill:none;stroke:#000000;stroke-width:0.1;stroke-miterlimit:4;stroke-dasharray:none"
             id="path7879"
             inkscape:connector-curvature="0" />
        </g>
      </g>
      <g
         transform="matrix(-1,0,0,1,849.21464,69.05527)"
         id="g7887">
        <g
           style="fill:#000000;fill-opacity:1"
           inkscape:tile-y0="10.411864"
           inkscape:tile-x0="154.53475"
           transform="translate(370.5954,-163.08516)"
           id="use7889">
          <circle
             id="circle4458"
             style="fill:none;stroke:#000000;stroke-width:0.1;stroke-miterlimit:4;stroke-dasharray:none"
             r="8"
             cy="-110"
             cx="50"
             transform="scale(1,-1)" />
          <path
             inkscape:connector-curvature="0"
             style="fill:none;fill-rule:evenodd;stroke:#000000;stroke-width:0.1;stroke-miterlimit:4;stroke-dasharray:none"
             d="M 50,121 A 11,11 0 0 0 50,99 L 24.000009,99 A 2,2 0 0 0 22,100.99999 l 0,18.00002 A 2,2 0 0 0 24.000009,121 L 50,121"
             id="path4460" />
          <circle
             id="circle4462"
             style="fill:none;stroke:#000000;stroke-width:0.1;stroke-miterlimit:4;stroke-dasharray:none"
             r="1.5"
             cy="-103"
             cx="31"
             transform="scale(1,-1)" />
          <circle
             id="circle4464"
             style="fill:none;stroke:#000000;stroke-width:0.1;stroke-miterlimit:4;stroke-dasharray:none"
             r="1.5"
             cy="-110"
             cx="26"
             transform="scale(1,-1)" />
          <circle
             id="circle4466"
             style="fill:none;stroke:#000000;stroke-width:0.1;stroke-miterlimit:4;stroke-dasharray:none"
             r="1.5"
             cy="-110"
             cx="36"
             transform="scale(1,-1)" />
          <circle
             id="circle4468"
             style="fill:none;stroke:#000000;stroke-width:0.1;stroke-miterlimit:4;stroke-dasharray:none"
             r="1.5"
             cy="-117"
             cx="31"
             transform="scale(1,-1)" />
        </g>
        <path
           inkscape:connector-curvature="0"
           id="path7891"
           style="fill:none;stroke:#000000;stroke-width:0.1;stroke-miterlimit:4;stroke-dasharray:none"
           d="m 402.87266,-46.22004 a 1.5,1.5 0 0 0 -1.5,-1.5 1.5,1.5 0 0 0 -1.5,1.5 1.5,1.5 0 0 0 1.5,1.5 1.5,1.5 0 0 0 1.5,-1.5 z m 5,-7 a 1.5,1.5 0 0 0 -1.5,-1.5 1.5,1.5 0 0 0 -1.5,1.5 1.5,1.5 0 0 0 1.5,1.5 1.5,1.5 0 0 0 1.5,-1.5 z m -10,0 a 1.5,1.5 0 0 0 -1.5,-1.5 1.5,1.5 0 0 0 -1.5,1.5 1.5,1.5 0 0 0 1.5,1.5 1.5,1.5 0 0 0 1.5,-1.5 z m 5,-7 a 1.5,1.5 0 0 0 -1.5,-1.5 1.5,1.5 0 0 0 -1.5,1.5 1.5,1.5 0 0 0 1.5,1.5 1.5,1.5 0 0 0 1.5,-1.5 z m -17,7 a 5.5,5.5 0 0 0 -5.5,-5.5 5.5,5.5 0 0 0 -5.5,5.5 5.5,5.5 0 0 0 5.5,5.5 5.5,5.5 0 0 0 5.5,-5.5 z m 24.5,-9.000007 a 2,2 0 0 0 -2.00002,-1.999993 l -14.26793,0 a 2,2 0 0 0 -1.73205,1 2,2 0 0 1 -1.73205,1 l -10.26795,0 a 9,9 0 1 0 0,18 l 10.26795,0 a 2,2 0 0 1 1.73205,1 2,2 0 0 0 1.73205,1 l 14.26793,0 a 2,2 0 0 0 2,-1.999998 l 2e-5,-18.000009" />
      </g>
      <g
         id="g7893"
         transform="matrix(-1,0,0,1,808.63091,69.212571)">
        <g
           style="fill:#000000;fill-opacity:1"
           inkscape:tile-y0="10.411864"
           inkscape:tile-x0="154.53475"
           transform="translate(370.5954,-163.08516)"
           id="use7895">
          <circle
             id="circle4472"
             style="fill:none;stroke:#000000;stroke-width:0.1;stroke-miterlimit:4;stroke-dasharray:none"
             r="8"
             cy="-110"
             cx="50"
             transform="scale(1,-1)" />
          <path
             inkscape:connector-curvature="0"
             style="fill:none;fill-rule:evenodd;stroke:#000000;stroke-width:0.1;stroke-miterlimit:4;stroke-dasharray:none"
             d="M 50,121 A 11,11 0 0 0 50,99 L 24.000009,99 A 2,2 0 0 0 22,100.99999 l 0,18.00002 A 2,2 0 0 0 24.000009,121 L 50,121"
             id="path4474" />
          <circle
             id="circle4476"
             style="fill:none;stroke:#000000;stroke-width:0.1;stroke-miterlimit:4;stroke-dasharray:none"
             r="1.5"
             cy="-103"
             cx="31"
             transform="scale(1,-1)" />
          <circle
             id="circle4478"
             style="fill:none;stroke:#000000;stroke-width:0.1;stroke-miterlimit:4;stroke-dasharray:none"
             r="1.5"
             cy="-110"
             cx="26"
             transform="scale(1,-1)" />
          <circle
             id="circle4480"
             style="fill:none;stroke:#000000;stroke-width:0.1;stroke-miterlimit:4;stroke-dasharray:none"
             r="1.5"
             cy="-110"
             cx="36"
             transform="scale(1,-1)" />
          <circle
             id="circle4482"
             style="fill:none;stroke:#000000;stroke-width:0.1;stroke-miterlimit:4;stroke-dasharray:none"
             r="1.5"
             cy="-117"
             cx="31"
             transform="scale(1,-1)" />
        </g>
        <path
           d="m 402.87266,-46.22004 a 1.5,1.5 0 0 0 -1.5,-1.5 1.5,1.5 0 0 0 -1.5,1.5 1.5,1.5 0 0 0 1.5,1.5 1.5,1.5 0 0 0 1.5,-1.5 z m 5,-7 a 1.5,1.5 0 0 0 -1.5,-1.5 1.5,1.5 0 0 0 -1.5,1.5 1.5,1.5 0 0 0 1.5,1.5 1.5,1.5 0 0 0 1.5,-1.5 z m -10,0 a 1.5,1.5 0 0 0 -1.5,-1.5 1.5,1.5 0 0 0 -1.5,1.5 1.5,1.5 0 0 0 1.5,1.5 1.5,1.5 0 0 0 1.5,-1.5 z m 5,-7 a 1.5,1.5 0 0 0 -1.5,-1.5 1.5,1.5 0 0 0 -1.5,1.5 1.5,1.5 0 0 0 1.5,1.5 1.5,1.5 0 0 0 1.5,-1.5 z m -17,7 a 5.5,5.5 0 0 0 -5.5,-5.5 5.5,5.5 0 0 0 -5.5,5.5 5.5,5.5 0 0 0 5.5,5.5 5.5,5.5 0 0 0 5.5,-5.5 z m 24.5,-9.000007 a 2,2 0 0 0 -2.00002,-1.999993 l -14.26793,0 a 2,2 0 0 0 -1.73205,1 2,2 0 0 1 -1.73205,1 l -10.26795,0 a 9,9 0 1 0 0,18 l 10.26795,0 a 2,2 0 0 1 1.73205,1 2,2 0 0 0 1.73205,1 l 14.26793,0 a 2,2 0 0 0 2,-1.999998 l 2e-5,-18.000009"
           style="fill:none;stroke:#000000;stroke-width:0.1;stroke-miterlimit:4;stroke-dasharray:none"
           id="path7897"
           inkscape:connector-curvature="0" />
      </g>
      <g
         id="g7907"
         transform="matrix(-1,0,0,-1,856.32062,-36.167625)">
        <g
           id="g7909"
           transform="matrix(0.53586028,0.84430667,-0.84430667,0.53586028,219.7975,-344.50656)"
           inkscape:transform-center-x="-11.626394"
           inkscape:transform-center-y="18.0366">
          <g
             style="fill:#000000;fill-opacity:1"
             inkscape:tile-y0="10.411864"
             inkscape:tile-x0="154.53475"
             transform="translate(370.5954,-163.08516)"
             id="use7911">
            <circle
               id="circle4486"
               style="fill:none;stroke:#000000;stroke-width:0.1;stroke-miterlimit:4;stroke-dasharray:none"
               r="8"
               cy="-110"
               cx="50"
               transform="scale(1,-1)" />
            <path
               inkscape:connector-curvature="0"
               style="fill:none;fill-rule:evenodd;stroke:#000000;stroke-width:0.1;stroke-miterlimit:4;stroke-dasharray:none"
               d="M 50,121 A 11,11 0 0 0 50,99 L 24.000009,99 A 2,2 0 0 0 22,100.99999 l 0,18.00002 A 2,2 0 0 0 24.000009,121 L 50,121"
               id="path4488" />
            <circle
               id="circle4490"
               style="fill:none;stroke:#000000;stroke-width:0.1;stroke-miterlimit:4;stroke-dasharray:none"
               r="1.5"
               cy="-103"
               cx="31"
               transform="scale(1,-1)" />
            <circle
               id="circle4492"
               style="fill:none;stroke:#000000;stroke-width:0.1;stroke-miterlimit:4;stroke-dasharray:none"
               r="1.5"
               cy="-110"
               cx="26"
               transform="scale(1,-1)" />
            <circle
               id="circle4494"
               style="fill:none;stroke:#000000;stroke-width:0.1;stroke-miterlimit:4;stroke-dasharray:none"
               r="1.5"
               cy="-110"
               cx="36"
               transform="scale(1,-1)" />
            <circle
               id="circle4496"
               style="fill:none;stroke:#000000;stroke-width:0.1;stroke-miterlimit:4;stroke-dasharray:none"
               r="1.5"
               cy="-117"
               cx="31"
               transform="scale(1,-1)" />
          </g>
          <path
             d="m 402.87266,-46.22004 a 1.5,1.5 0 0 0 -1.5,-1.5 1.5,1.5 0 0 0 -1.5,1.5 1.5,1.5 0 0 0 1.5,1.5 1.5,1.5 0 0 0 1.5,-1.5 z m 5,-7 a 1.5,1.5 0 0 0 -1.5,-1.5 1.5,1.5 0 0 0 -1.5,1.5 1.5,1.5 0 0 0 1.5,1.5 1.5,1.5 0 0 0 1.5,-1.5 z m -10,0 a 1.5,1.5 0 0 0 -1.5,-1.5 1.5,1.5 0 0 0 -1.5,1.5 1.5,1.5 0 0 0 1.5,1.5 1.5,1.5 0 0 0 1.5,-1.5 z m 5,-7 a 1.5,1.5 0 0 0 -1.5,-1.5 1.5,1.5 0 0 0 -1.5,1.5 1.5,1.5 0 0 0 1.5,1.5 1.5,1.5 0 0 0 1.5,-1.5 z m -17,7 a 5.5,5.5 0 0 0 -5.5,-5.5 5.5,5.5 0 0 0 -5.5,5.5 5.5,5.5 0 0 0 5.5,5.5 5.5,5.5 0 0 0 5.5,-5.5 z m 24.5,-9.000007 a 2,2 0 0 0 -2.00002,-1.999993 l -14.26793,0 a 2,2 0 0 0 -1.73205,1 2,2 0 0 1 -1.73205,1 l -10.26795,0 a 9,9 0 1 0 0,18 l 10.26795,0 a 2,2 0 0 1 1.73205,1 2,2 0 0 0 1.73205,1 l 14.26793,0 a 2,2 0 0 0 2,-1.999998 l 2e-5,-18.000009"
             style="fill:none;stroke:#000000;stroke-width:0.1;stroke-miterlimit:4;stroke-dasharray:none"
             id="path7913"
             inkscape:connector-curvature="0" />
        </g>
        <g
           inkscape:transform-center-y="17.795857"
           inkscape:transform-center-x="12.002944"
           transform="matrix(-0.54141311,0.84075671,-0.84075671,-0.54141311,651.65253,-366.6084)"
           id="g7915">
          <g
             style="fill:#000000;fill-opacity:1"
             inkscape:tile-y0="10.411864"
             inkscape:tile-x0="154.53475"
             transform="translate(370.5954,-163.08516)"
             id="use7917">
            <circle
               id="circle4500"
               style="fill:none;stroke:#000000;stroke-width:0.1;stroke-miterlimit:4;stroke-dasharray:none"
               r="8"
               cy="-110"
               cx="50"
               transform="scale(1,-1)" />
            <path
               inkscape:connector-curvature="0"
               style="fill:none;fill-rule:evenodd;stroke:#000000;stroke-width:0.1;stroke-miterlimit:4;stroke-dasharray:none"
               d="M 50,121 A 11,11 0 0 0 50,99 L 24.000009,99 A 2,2 0 0 0 22,100.99999 l 0,18.00002 A 2,2 0 0 0 24.000009,121 L 50,121"
               id="path4502" />
            <circle
               id="circle4504"
               style="fill:none;stroke:#000000;stroke-width:0.1;stroke-miterlimit:4;stroke-dasharray:none"
               r="1.5"
               cy="-103"
               cx="31"
               transform="scale(1,-1)" />
            <circle
               id="circle4506"
               style="fill:none;stroke:#000000;stroke-width:0.1;stroke-miterlimit:4;stroke-dasharray:none"
               r="1.5"
               cy="-110"
               cx="26"
               transform="scale(1,-1)" />
            <circle
               id="circle4508"
               style="fill:none;stroke:#000000;stroke-width:0.1;stroke-miterlimit:4;stroke-dasharray:none"
               r="1.5"
               cy="-110"
               cx="36"
               transform="scale(1,-1)" />
            <circle
               id="circle4510"
               style="fill:none;stroke:#000000;stroke-width:0.1;stroke-miterlimit:4;stroke-dasharray:none"
               r="1.5"
               cy="-117"
               cx="31"
               transform="scale(1,-1)" />
          </g>
          <path
             inkscape:connector-curvature="0"
             id="path7919"
             style="fill:none;stroke:#000000;stroke-width:0.1;stroke-miterlimit:4;stroke-dasharray:none"
             d="m 402.87266,-46.22004 a 1.5,1.5 0 0 0 -1.5,-1.5 1.5,1.5 0 0 0 -1.5,1.5 1.5,1.5 0 0 0 1.5,1.5 1.5,1.5 0 0 0 1.5,-1.5 z m 5,-7 a 1.5,1.5 0 0 0 -1.5,-1.5 1.5,1.5 0 0 0 -1.5,1.5 1.5,1.5 0 0 0 1.5,1.5 1.5,1.5 0 0 0 1.5,-1.5 z m -10,0 a 1.5,1.5 0 0 0 -1.5,-1.5 1.5,1.5 0 0 0 -1.5,1.5 1.5,1.5 0 0 0 1.5,1.5 1.5,1.5 0 0 0 1.5,-1.5 z m 5,-7 a 1.5,1.5 0 0 0 -1.5,-1.5 1.5,1.5 0 0 0 -1.5,1.5 1.5,1.5 0 0 0 1.5,1.5 1.5,1.5 0 0 0 1.5,-1.5 z m -17,7 a 5.5,5.5 0 0 0 -5.5,-5.5 5.5,5.5 0 0 0 -5.5,5.5 5.5,5.5 0 0 0 5.5,5.5 5.5,5.5 0 0 0 5.5,-5.5 z m 24.5,-9.000007 a 2,2 0 0 0 -2.00002,-1.999993 l -14.26793,0 a 2,2 0 0 0 -1.73205,1 2,2 0 0 1 -1.73205,1 l -10.26795,0 a 9,9 0 1 0 0,18 l 10.26795,0 a 2,2 0 0 1 1.73205,1 2,2 0 0 0 1.73205,1 l 14.26793,0 a 2,2 0 0 0 2,-1.999998 l 2e-5,-18.000009" />
        </g>
      </g>
    </g>
  </g>
  <path
     id="path7952"
     d="m 240.23215,126.37885 0.107,0 0.10701,0.003 0.106,0.004 0.108,0.006 0.107,0.008 0.107,0.009 0.108,0.011 0.108,0.013 0.108,0.014 0.109,0.017 0.109,0.018 0.109,0.02 0.11,0.022 0.11,0.023 0.111,0.026 0.111,0.027 0.11201,0.03 0.112,0.031 0.113,0.033 0.114,0.036 0.114,0.037 0.115,0.04 0.116,0.042 0.116,0.044 0.117,0.046 0.117,0.048 0.118,0.051 0.119,0.053 0.119,0.055 0.12,0.058 0.12101,0.06 0.121,0.063 0.122,0.065 0.123,0.067 0.123,0.07 0.124,0.073 0.124,0.075 0.125,0.078 0.125,0.081 0.126,0.083 0.126,0.086 0.12701,0.089 0.127,0.091 0.127,0.094 0.128,0.097 0.128,0.1 0.129,0.102 0.128,0.105 0.129,0.109 0.13,0.111 0.129,0.11301 0.129,0.117 0.13,0.12 0.129,0.122 0.13,0.126 0.129,0.128 0.13,0.131 0.12901,0.134 0.129,0.137 0.129,0.14 0.129,0.143 0.129,0.145 0.128,0.14901 0.128,0.151 0.128,0.154 0.127,0.157 0.127,0.16 0.126,0.163 0.126,0.165 0.12501,0.169 0.12499,0.171 0.12401,0.174 0.123,0.17601 0.123,0.18 0.122,0.182 0.121,0.185 0.12,0.187 0.12,0.19 0.118,0.193 0.118,0.195 0.117,0.19801 0.11601,0.201 0.115,0.203 0.114,0.206 0.112,0.208 0.112,0.21 0.111,0.213 0.109,0.21601 0.108,0.217 0.107,0.221 0.106,0.222 0.104,0.225 0.104,0.227 0.102,0.229 0.1,0.23101 0.099,0.234 0.098,0.236 0.096,0.237 0.095,0.24 0.094,0.242 0.091,0.244 0.091,0.24601 0.089,0.248 0.087,0.249 0.086,0.252 0.084,0.253 0.082,0.255 0.081,0.25701 0.079,0.259 0.078,0.26 0.075,0.262 0.074,0.263 0.073,0.265 0.07,0.26601 0.069,0.268 0.067,0.27 0.065,0.271 0.064,0.272 0.061,0.27301 0.06,0.275 0.058,0.276 0.056,0.277 0.054,0.278 0.052,0.28 0.05,0.28001 0.048,0.282 0.047,0.282 0.044,0.284 0.043,0.284 0.04,0.28601 0.039,0.286 0.036,0.287 0.035,0.287 0.032,0.289 0.031,0.289 0.029,0.28901 0.026,0.29 0.025,0.291 0.022,0.291 0.021,0.292 0.018,0.29201 0.017,0.292 0.014,0.293 0.012,0.293 0.011,0.293 0.008,0.29401 0.006,0.293 0.004,0.294 0.002,0.294 0,0.294 -0.002,0.293 -0.004,0.29401 -0.006,0.294 -0.008,0.293 -0.011,0.293 -0.012,0.293 -0.014,0.29301 -0.017,0.293 -0.018,0.292 -0.021,0.291 -0.022,0.292 -0.025,0.29001 -0.026,0.29 -0.029,0.29 -0.031,0.289 -0.032,0.288 -0.035,0.288 -0.036,0.28701 -0.039,0.286 -0.04,0.285 -0.043,0.285 -0.044,0.283 -0.047,0.28301 -0.048,0.281 -0.05,0.281 -0.052,0.279 -0.054,0.279 -0.056,0.277 -0.058,0.27601 -0.06,0.274 -0.061,0.274 -0.064,0.272 -0.065,0.271 -0.067,0.269 -0.069,0.26801 -0.07,0.267 -0.073,0.265 -0.074,0.263 -0.075,0.262 -0.078,0.26001 -0.079,0.259 -0.081,0.256 -0.082,0.256 -0.084,0.253 -0.086,0.25101 -0.087,0.25 -0.089,0.248 -0.091,0.246 -0.091,0.243 -0.094,0.242 -0.095,0.24 -0.096,0.238 -0.098,0.23601 -0.099,0.233 -0.1,0.232 -0.102,0.229 -0.104,0.227 -0.104,0.225 -0.106,0.222 -0.107,0.22001 -0.108,0.218 -0.109,0.215 -0.111,0.213 -0.112,0.211 -0.112,0.208 -0.114,0.20601 -0.115,0.203 -0.11601,0.2 -0.117,0.198 -0.118,0.195 -0.118,0.193 -0.12,0.19 -0.12,0.188 -0.121,0.18501 -0.122,0.182 -0.123,0.179 -0.123,0.177 -0.12401,0.174 -0.12499,0.171 -0.12501,0.168 -0.126,0.166 -0.126,0.162 -0.127,0.16001 -0.127,0.157 -0.128,0.155 -0.128,0.151 -0.128,0.148 -0.129,0.146 -0.129,0.143 -0.129,0.139 -0.129,0.137 -0.12901,0.134 -0.13,0.132 -0.129,0.12801 -0.13,0.12499 -0.129,0.12301 -0.13,0.119 -0.129,0.117 -0.129,0.114 -0.13,0.111 -0.129,0.108 -0.128,0.106 -0.129,0.102 -0.128,0.1 -0.128,0.097 -0.127,0.094 -0.127,0.091 -0.12701,0.089 -0.126,0.086 -0.126,0.083 -0.125,0.08 -0.125,0.078 -0.124,0.076 -0.124,0.072 -0.123,0.07 -0.123,0.068 -0.122,0.065 -0.121,0.062 -0.12101,0.061 -0.12,0.057 -0.119,0.056 -0.119,0.053 -0.118,0.05 -0.117,0.049 -0.117,0.046 -0.116,0.044 -0.116,0.042 -0.115,0.039 -0.114,0.038 -0.114,0.035 -0.113,0.034 -0.112,0.031 -0.11201,0.029 -0.111,0.028 -0.111,0.025 -0.11,0.024 -0.11,0.022 -0.109,0.02 -0.109,0.018 -0.109,0.016 -0.108,0.015 -0.108,0.013 -0.108,0.011 -0.107,0.009 -0.107,0.008 -0.108,0.005 -0.106,0.005 -0.10701,0.002 -0.107,0.001 -80.00051,0 -0.107,-0.001 -0.10701,-0.002 -0.107,-0.005 -0.107,-0.005 -0.107,-0.008 -0.108,-0.009 -0.107,-0.011 -0.108,-0.013 -0.108,-0.015 -0.109,-0.016 -0.109,-0.018 -0.109,-0.02 -0.11,-0.022 -0.11,-0.024 -0.111,-0.025 -0.11201,-0.028 -0.111,-0.029 -0.113,-0.031 -0.113,-0.034 -0.113,-0.035 -0.115,-0.038 -0.114,-0.039 -0.116,-0.042 -0.116,-0.044 -0.117,-0.046 -0.117,-0.049 -0.118,-0.05 -0.119,-0.053 -0.12001,-0.056 -0.12,-0.057 -0.12,-0.061 -0.122,-0.062 -0.122,-0.065 -0.122,-0.068 -0.123,-0.07 -0.124,-0.072 -0.124,-0.076 -0.125,-0.078 -0.125,-0.08 -0.126,-0.083 -0.126,-0.086 -0.12701,-0.089 -0.127,-0.091 -0.128,-0.094 -0.127,-0.097 -0.129,-0.1 -0.128,-0.102 -0.129,-0.106 -0.129,-0.108 -0.129,-0.111 -0.129,-0.114 -0.13,-0.11701 -0.129,-0.119 -0.13001,-0.123 -0.129,-0.125 -0.13,-0.128 -0.129,-0.132 -0.129,-0.134 -0.13,-0.137 -0.129,-0.139 -0.129,-0.143 -0.128,-0.14601 -0.128,-0.148 -0.128,-0.151 -0.128,-0.155 -0.12701,-0.157 -0.127,-0.16 -0.126,-0.162 -0.126,-0.166 -0.125,-0.168 -0.125,-0.171 -0.124,-0.174 -0.123,-0.177 -0.123,-0.17901 -0.122,-0.182 -0.121,-0.185 -0.121,-0.188 -0.11901,-0.19 -0.119,-0.193 -0.118,-0.195 -0.116,-0.198 -0.116,-0.20001 -0.115,-0.203 -0.114,-0.206 -0.113,-0.208 -0.111,-0.211 -0.111,-0.213 -0.109,-0.215 -0.109,-0.21801 -0.107,-0.22 -0.105,-0.222 -0.10501,-0.225 -0.103,-0.227 -0.102,-0.229 -0.1,-0.23201 -0.1,-0.233 -0.097,-0.236 -0.097,-0.238 -0.095,-0.24 -0.093,-0.242 -0.092,-0.24301 -0.09,-0.246 -0.089,-0.248 -0.087,-0.25 -0.086,-0.251 -0.084,-0.253 -0.083,-0.256 -0.08,-0.25601 -0.08,-0.259 -0.077,-0.26 -0.076,-0.262 -0.074,-0.263 -0.072,-0.26501 -0.071,-0.267 -0.068,-0.268 -0.067,-0.269 -0.066,-0.271 -0.063,-0.272 -0.061,-0.274 -0.06,-0.27401 -0.058,-0.276 -0.056,-0.277 -0.054,-0.279 -0.052,-0.279 -0.05,-0.281 -0.049,-0.28101 -0.046,-0.283 -0.044,-0.283 -0.043,-0.285 -0.04,-0.285 -0.039,-0.28601 -0.037,-0.287 -0.034,-0.288 -0.033,-0.288 -0.03,-0.289 -0.029,-0.29 -0.027,-0.29001 -0.024,-0.29 -0.023,-0.292 -0.02,-0.291 -0.019,-0.29201 -0.016,-0.293 -0.014,-0.293 -0.013,-0.293 -0.01,-0.293 -0.008,-0.293 -0.006,-0.29401 -0.004,-0.294 -0.002,-0.293 0,-0.294 0.002,-0.294 0.004,-0.29401 0.006,-0.293 0.008,-0.294 0.01,-0.293 0.013,-0.293 0.014,-0.29301 0.016,-0.292 0.019,-0.292 0.02,-0.292 0.023,-0.291 0.024,-0.291 0.027,-0.29001 0.029,-0.289 0.03,-0.289 0.033,-0.289 0.034,-0.287 0.037,-0.28701 0.039,-0.286 0.04,-0.286 0.043,-0.284 0.044,-0.284 0.046,-0.28201 0.049,-0.282 0.05,-0.28 0.052,-0.28 0.054,-0.278 0.056,-0.277 0.058,-0.27601 0.06,-0.275 0.061,-0.273 0.063,-0.272 0.066,-0.271 0.067,-0.27 0.068,-0.26801 0.071,-0.266 0.072,-0.265 0.074,-0.263 0.076,-0.262 0.077,-0.26001 0.08,-0.259 0.08,-0.257 0.083,-0.255 0.084,-0.253 0.086,-0.252 0.087,-0.249 0.089,-0.24801 0.09,-0.246 0.092,-0.244 0.093,-0.242 0.095,-0.24 0.097,-0.237 0.097,-0.23601 0.1,-0.234 0.1,-0.231 0.102,-0.229 0.103,-0.227 0.10501,-0.225 0.105,-0.222 0.107,-0.22101 0.109,-0.217 0.109,-0.216 0.111,-0.213 0.111,-0.21 0.113,-0.208 0.114,-0.206 0.115,-0.20301 0.116,-0.201 0.116,-0.198 0.118,-0.195 0.119,-0.193 0.11901,-0.19 0.121,-0.187 0.121,-0.185 0.122,-0.18201 0.123,-0.18 0.123,-0.176 0.124,-0.174 0.125,-0.171 0.125,-0.169 0.126,-0.165 0.126,-0.163 0.127,-0.16 0.12701,-0.15701 0.128,-0.154 0.128,-0.151 0.128,-0.149 0.128,-0.145 0.129,-0.143 0.129,-0.14 0.13,-0.137 0.129,-0.134 0.129,-0.131 0.13,-0.128 0.129,-0.12601 0.13001,-0.122 0.129,-0.12 0.13,-0.117 0.129,-0.113 0.129,-0.111 0.129,-0.109 0.129,-0.105 0.128,-0.102 0.129,-0.1 0.127,-0.097 0.128,-0.094 0.127,-0.091 0.12701,-0.089 0.126,-0.086 0.126,-0.083 0.125,-0.081 0.125,-0.078 0.124,-0.075 0.124,-0.073 0.123,-0.07 0.122,-0.067 0.122,-0.065 0.122,-0.063 0.12,-0.06 0.12,-0.058 0.12001,-0.055 0.119,-0.053 0.118,-0.051 0.117,-0.048 0.117,-0.046 0.116,-0.044 0.116,-0.042 0.114,-0.04 0.115,-0.037 0.113,-0.036 0.113,-0.033 0.113,-0.031 0.111,-0.03 0.11201,-0.027 0.111,-0.026 0.11,-0.023 0.11,-0.022 0.109,-0.02 0.109,-0.018 0.109,-0.017 0.108,-0.014 0.108,-0.013 0.107,-0.011 0.108,-0.009 0.107,-0.008 0.107,-0.006 0.107,-0.004 0.10701,-0.003 0.107,0 z"
     style="fill:none;stroke:#000000;stroke-width:0.2000013"
     inkscape:connector-curvature="0" />
  <g
     transform="translate(-199.63857,169.64223)"
     id="g7954">
    <g
       id="use7956"
       transform="translate(370.5954,-163.08516)"
       inkscape:tile-x0="154.53475"
       inkscape:tile-y0="10.411864"
       style="fill:#000000;fill-opacity:1">
      <circle
         transform="scale(1,-1)"
         cx="50"
         cy="-110"
         r="8"
         style="fill:none;stroke:#000000;stroke-width:0.1;stroke-miterlimit:4;stroke-dasharray:none"
         id="circle4514" />
      <path
         id="path4516"
         d="M 50,121 A 11,11 0 0 0 50,99 L 24.000009,99 A 2,2 0 0 0 22,100.99999 l 0,18.00002 A 2,2 0 0 0 24.000009,121 L 50,121"
         style="fill:none;fill-rule:evenodd;stroke:#000000;stroke-width:0.1;stroke-miterlimit:4;stroke-dasharray:none"
         inkscape:connector-curvature="0" />
      <circle
         transform="scale(1,-1)"
         cx="31"
         cy="-103"
         r="1.5"
         style="fill:none;stroke:#000000;stroke-width:0.1;stroke-miterlimit:4;stroke-dasharray:none"
         id="circle4518" />
      <circle
         transform="scale(1,-1)"
         cx="26"
         cy="-110"
         r="1.5"
         style="fill:none;stroke:#000000;stroke-width:0.1;stroke-miterlimit:4;stroke-dasharray:none"
         id="circle4520" />
      <circle
         transform="scale(1,-1)"
         cx="36"
         cy="-110"
         r="1.5"
         style="fill:none;stroke:#000000;stroke-width:0.1;stroke-miterlimit:4;stroke-dasharray:none"
         id="circle4522" />
      <circle
         transform="scale(1,-1)"
         cx="31"
         cy="-117"
         r="1.5"
         style="fill:none;stroke:#000000;stroke-width:0.1;stroke-miterlimit:4;stroke-dasharray:none"
         id="circle4524" />
    </g>
    <path
       inkscape:connector-curvature="0"
       id="path7958"
       style="fill:none;stroke:#000000;stroke-width:0.1;stroke-miterlimit:4;stroke-dasharray:none"
       d="m 402.87266,-46.22004 a 1.5,1.5 0 0 0 -1.5,-1.5 1.5,1.5 0 0 0 -1.5,1.5 1.5,1.5 0 0 0 1.5,1.5 1.5,1.5 0 0 0 1.5,-1.5 z m 5,-7 a 1.5,1.5 0 0 0 -1.5,-1.5 1.5,1.5 0 0 0 -1.5,1.5 1.5,1.5 0 0 0 1.5,1.5 1.5,1.5 0 0 0 1.5,-1.5 z m -10,0 a 1.5,1.5 0 0 0 -1.5,-1.5 1.5,1.5 0 0 0 -1.5,1.5 1.5,1.5 0 0 0 1.5,1.5 1.5,1.5 0 0 0 1.5,-1.5 z m 5,-7 a 1.5,1.5 0 0 0 -1.5,-1.5 1.5,1.5 0 0 0 -1.5,1.5 1.5,1.5 0 0 0 1.5,1.5 1.5,1.5 0 0 0 1.5,-1.5 z m -17,7 a 5.5,5.5 0 0 0 -5.5,-5.5 5.5,5.5 0 0 0 -5.5,5.5 5.5,5.5 0 0 0 5.5,5.5 5.5,5.5 0 0 0 5.5,-5.5 z m 24.5,-9.000007 a 2,2 0 0 0 -2.00002,-1.999993 l -14.26793,0 a 2,2 0 0 0 -1.73205,1 2,2 0 0 1 -1.73205,1 l -10.26795,0 a 9,9 0 1 0 0,18 l 10.26795,0 a 2,2 0 0 1 1.73205,1 2,2 0 0 0 1.73205,1 l 14.26793,0 a 2,2 0 0 0 2,-1.999998 l 2e-5,-18.000009" />
  </g>
  <g
     id="g7960"
     transform="matrix(0,1,-1,0,205.21723,-249.44974)">
    <g
       id="use7962"
       transform="translate(370.5954,-163.08516)"
       inkscape:tile-x0="154.53475"
       inkscape:tile-y0="10.411864"
       style="fill:#000000;fill-opacity:1">
      <circle
         transform="scale(1,-1)"
         cx="50"
         cy="-110"
         r="8"
         style="fill:none;stroke:#000000;stroke-width:0.1;stroke-miterlimit:4;stroke-dasharray:none"
         id="circle4528" />
      <path
         id="path4530"
         d="M 50,121 A 11,11 0 0 0 50,99 L 24.000009,99 A 2,2 0 0 0 22,100.99999 l 0,18.00002 A 2,2 0 0 0 24.000009,121 L 50,121"
         style="fill:none;fill-rule:evenodd;stroke:#000000;stroke-width:0.1;stroke-miterlimit:4;stroke-dasharray:none"
         inkscape:connector-curvature="0" />
      <circle
         transform="scale(1,-1)"
         cx="31"
         cy="-103"
         r="1.5"
         style="fill:none;stroke:#000000;stroke-width:0.1;stroke-miterlimit:4;stroke-dasharray:none"
         id="circle4532" />
      <circle
         transform="scale(1,-1)"
         cx="26"
         cy="-110"
         r="1.5"
         style="fill:none;stroke:#000000;stroke-width:0.1;stroke-miterlimit:4;stroke-dasharray:none"
         id="circle4534" />
      <circle
         transform="scale(1,-1)"
         cx="36"
         cy="-110"
         r="1.5"
         style="fill:none;stroke:#000000;stroke-width:0.1;stroke-miterlimit:4;stroke-dasharray:none"
         id="circle4536" />
      <circle
         transform="scale(1,-1)"
         cx="31"
         cy="-117"
         r="1.5"
         style="fill:none;stroke:#000000;stroke-width:0.1;stroke-miterlimit:4;stroke-dasharray:none"
         id="circle4538" />
    </g>
    <path
       d="m 402.87266,-46.22004 a 1.5,1.5 0 0 0 -1.5,-1.5 1.5,1.5 0 0 0 -1.5,1.5 1.5,1.5 0 0 0 1.5,1.5 1.5,1.5 0 0 0 1.5,-1.5 z m 5,-7 a 1.5,1.5 0 0 0 -1.5,-1.5 1.5,1.5 0 0 0 -1.5,1.5 1.5,1.5 0 0 0 1.5,1.5 1.5,1.5 0 0 0 1.5,-1.5 z m -10,0 a 1.5,1.5 0 0 0 -1.5,-1.5 1.5,1.5 0 0 0 -1.5,1.5 1.5,1.5 0 0 0 1.5,1.5 1.5,1.5 0 0 0 1.5,-1.5 z m 5,-7 a 1.5,1.5 0 0 0 -1.5,-1.5 1.5,1.5 0 0 0 -1.5,1.5 1.5,1.5 0 0 0 1.5,1.5 1.5,1.5 0 0 0 1.5,-1.5 z m -17,7 a 5.5,5.5 0 0 0 -5.5,-5.5 5.5,5.5 0 0 0 -5.5,5.5 5.5,5.5 0 0 0 5.5,5.5 5.5,5.5 0 0 0 5.5,-5.5 z m 24.5,-9.000007 a 2,2 0 0 0 -2.00002,-1.999993 l -14.26793,0 a 2,2 0 0 0 -1.73205,1 2,2 0 0 1 -1.73205,1 l -10.26795,0 a 9,9 0 1 0 0,18 l 10.26795,0 a 2,2 0 0 1 1.73205,1 2,2 0 0 0 1.73205,1 l 14.26793,0 a 2,2 0 0 0 2,-1.999998 l 2e-5,-18.000009"
       style="fill:none;stroke:#000000;stroke-width:0.1;stroke-miterlimit:4;stroke-dasharray:none"
       id="path7964"
       inkscape:connector-curvature="0" />
  </g>
  <g
     id="g7980"
     transform="matrix(-0.93980327,0.341716,0.341716,0.93980327,632.93451,91.33888)"
     inkscape:transform-center-x="-18.128579"
     inkscape:transform-center-y="-5.9552256">
    <g
       id="use7982"
       transform="translate(370.5954,-163.08516)"
       inkscape:tile-x0="154.53475"
       inkscape:tile-y0="10.411864"
       style="fill:#000000;fill-opacity:1">
      <circle
         transform="scale(1,-1)"
         cx="50"
         cy="-110"
         r="8"
         style="fill:none;stroke:#000000;stroke-width:0.1;stroke-miterlimit:4;stroke-dasharray:none"
         id="circle4542" />
      <path
         id="path4544"
         d="M 50,121 A 11,11 0 0 0 50,99 L 24.000009,99 A 2,2 0 0 0 22,100.99999 l 0,18.00002 A 2,2 0 0 0 24.000009,121 L 50,121"
         style="fill:none;fill-rule:evenodd;stroke:#000000;stroke-width:0.1;stroke-miterlimit:4;stroke-dasharray:none"
         inkscape:connector-curvature="0" />
      <circle
         transform="scale(1,-1)"
         cx="31"
         cy="-103"
         r="1.5"
         style="fill:none;stroke:#000000;stroke-width:0.1;stroke-miterlimit:4;stroke-dasharray:none"
         id="circle4546" />
      <circle
         transform="scale(1,-1)"
         cx="26"
         cy="-110"
         r="1.5"
         style="fill:none;stroke:#000000;stroke-width:0.1;stroke-miterlimit:4;stroke-dasharray:none"
         id="circle4548" />
      <circle
         transform="scale(1,-1)"
         cx="36"
         cy="-110"
         r="1.5"
         style="fill:none;stroke:#000000;stroke-width:0.1;stroke-miterlimit:4;stroke-dasharray:none"
         id="circle4550" />
      <circle
         transform="scale(1,-1)"
         cx="31"
         cy="-117"
         r="1.5"
         style="fill:none;stroke:#000000;stroke-width:0.1;stroke-miterlimit:4;stroke-dasharray:none"
         id="circle4552" />
    </g>
    <path
       d="m 402.87266,-46.22004 a 1.5,1.5 0 0 0 -1.5,-1.5 1.5,1.5 0 0 0 -1.5,1.5 1.5,1.5 0 0 0 1.5,1.5 1.5,1.5 0 0 0 1.5,-1.5 z m 5,-7 a 1.5,1.5 0 0 0 -1.5,-1.5 1.5,1.5 0 0 0 -1.5,1.5 1.5,1.5 0 0 0 1.5,1.5 1.5,1.5 0 0 0 1.5,-1.5 z m -10,0 a 1.5,1.5 0 0 0 -1.5,-1.5 1.5,1.5 0 0 0 -1.5,1.5 1.5,1.5 0 0 0 1.5,1.5 1.5,1.5 0 0 0 1.5,-1.5 z m 5,-7 a 1.5,1.5 0 0 0 -1.5,-1.5 1.5,1.5 0 0 0 -1.5,1.5 1.5,1.5 0 0 0 1.5,1.5 1.5,1.5 0 0 0 1.5,-1.5 z m -17,7 a 5.5,5.5 0 0 0 -5.5,-5.5 5.5,5.5 0 0 0 -5.5,5.5 5.5,5.5 0 0 0 5.5,5.5 5.5,5.5 0 0 0 5.5,-5.5 z m 24.5,-9.000007 a 2,2 0 0 0 -2.00002,-1.999993 l -14.26793,0 a 2,2 0 0 0 -1.73205,1 2,2 0 0 1 -1.73205,1 l -10.26795,0 a 9,9 0 1 0 0,18 l 10.26795,0 a 2,2 0 0 1 1.73205,1 2,2 0 0 0 1.73205,1 l 14.26793,0 a 2,2 0 0 0 2,-1.999998 l 2e-5,-18.000009"
       style="fill:none;stroke:#000000;stroke-width:0.1;stroke-miterlimit:4;stroke-dasharray:none"
       id="path7984"
       inkscape:connector-curvature="0" />
  </g>
  <g
     transform="matrix(-1,0,0,1,599.52075,238.50282)"
     id="g7986">
    <g
       id="use7988"
       transform="translate(370.5954,-163.08516)"
       inkscape:tile-x0="154.53475"
       inkscape:tile-y0="10.411864"
       style="fill:#000000;fill-opacity:1">
      <circle
         transform="scale(1,-1)"
         cx="50"
         cy="-110"
         r="8"
         style="fill:none;stroke:#000000;stroke-width:0.1;stroke-miterlimit:4;stroke-dasharray:none"
         id="circle4556" />
      <path
         id="path4558"
         d="M 50,121 A 11,11 0 0 0 50,99 L 24.000009,99 A 2,2 0 0 0 22,100.99999 l 0,18.00002 A 2,2 0 0 0 24.000009,121 L 50,121"
         style="fill:none;fill-rule:evenodd;stroke:#000000;stroke-width:0.1;stroke-miterlimit:4;stroke-dasharray:none"
         inkscape:connector-curvature="0" />
      <circle
         transform="scale(1,-1)"
         cx="31"
         cy="-103"
         r="1.5"
         style="fill:none;stroke:#000000;stroke-width:0.1;stroke-miterlimit:4;stroke-dasharray:none"
         id="circle4560" />
      <circle
         transform="scale(1,-1)"
         cx="26"
         cy="-110"
         r="1.5"
         style="fill:none;stroke:#000000;stroke-width:0.1;stroke-miterlimit:4;stroke-dasharray:none"
         id="circle4562" />
      <circle
         transform="scale(1,-1)"
         cx="36"
         cy="-110"
         r="1.5"
         style="fill:none;stroke:#000000;stroke-width:0.1;stroke-miterlimit:4;stroke-dasharray:none"
         id="circle4564" />
      <circle
         transform="scale(1,-1)"
         cx="31"
         cy="-117"
         r="1.5"
         style="fill:none;stroke:#000000;stroke-width:0.1;stroke-miterlimit:4;stroke-dasharray:none"
         id="circle4566" />
    </g>
    <path
       inkscape:connector-curvature="0"
       id="path7990"
       style="fill:none;stroke:#000000;stroke-width:0.1;stroke-miterlimit:4;stroke-dasharray:none"
       d="m 402.87266,-46.22004 a 1.5,1.5 0 0 0 -1.5,-1.5 1.5,1.5 0 0 0 -1.5,1.5 1.5,1.5 0 0 0 1.5,1.5 1.5,1.5 0 0 0 1.5,-1.5 z m 5,-7 a 1.5,1.5 0 0 0 -1.5,-1.5 1.5,1.5 0 0 0 -1.5,1.5 1.5,1.5 0 0 0 1.5,1.5 1.5,1.5 0 0 0 1.5,-1.5 z m -10,0 a 1.5,1.5 0 0 0 -1.5,-1.5 1.5,1.5 0 0 0 -1.5,1.5 1.5,1.5 0 0 0 1.5,1.5 1.5,1.5 0 0 0 1.5,-1.5 z m 5,-7 a 1.5,1.5 0 0 0 -1.5,-1.5 1.5,1.5 0 0 0 -1.5,1.5 1.5,1.5 0 0 0 1.5,1.5 1.5,1.5 0 0 0 1.5,-1.5 z m -17,7 a 5.5,5.5 0 0 0 -5.5,-5.5 5.5,5.5 0 0 0 -5.5,5.5 5.5,5.5 0 0 0 5.5,5.5 5.5,5.5 0 0 0 5.5,-5.5 z m 24.5,-9.000007 a 2,2 0 0 0 -2.00002,-1.999993 l -14.26793,0 a 2,2 0 0 0 -1.73205,1 2,2 0 0 1 -1.73205,1 l -10.26795,0 a 9,9 0 1 0 0,18 l 10.26795,0 a 2,2 0 0 1 1.73205,1 2,2 0 0 0 1.73205,1 l 14.26793,0 a 2,2 0 0 0 2,-1.999998 l 2e-5,-18.000009" />
  </g>
  <g
     id="g8033"
     transform="matrix(0.93328371,0.35913997,-0.35913997,0.93328371,-153.36669,29.3644)"
     inkscape:transform-center-x="-19.630459"
     inkscape:transform-center-y="8.6459694">
    <g
       id="use8035"
       transform="translate(370.5954,-163.08516)"
       inkscape:tile-x0="154.53475"
       inkscape:tile-y0="10.411864"
       style="fill:#000000;fill-opacity:1">
      <circle
         transform="scale(1,-1)"
         cx="50"
         cy="-110"
         r="8"
         style="fill:none;stroke:#000000;stroke-width:0.1;stroke-miterlimit:4;stroke-dasharray:none"
         id="circle4570" />
      <path
         id="path4572"
         d="M 50,121 A 11,11 0 0 0 50,99 L 24.000009,99 A 2,2 0 0 0 22,100.99999 l 0,18.00002 A 2,2 0 0 0 24.000009,121 L 50,121"
         style="fill:none;fill-rule:evenodd;stroke:#000000;stroke-width:0.1;stroke-miterlimit:4;stroke-dasharray:none"
         inkscape:connector-curvature="0" />
      <circle
         transform="scale(1,-1)"
         cx="31"
         cy="-103"
         r="1.5"
         style="fill:none;stroke:#000000;stroke-width:0.1;stroke-miterlimit:4;stroke-dasharray:none"
         id="circle4574" />
      <circle
         transform="scale(1,-1)"
         cx="26"
         cy="-110"
         r="1.5"
         style="fill:none;stroke:#000000;stroke-width:0.1;stroke-miterlimit:4;stroke-dasharray:none"
         id="circle4576" />
      <circle
         transform="scale(1,-1)"
         cx="36"
         cy="-110"
         r="1.5"
         style="fill:none;stroke:#000000;stroke-width:0.1;stroke-miterlimit:4;stroke-dasharray:none"
         id="circle4578" />
      <circle
         transform="scale(1,-1)"
         cx="31"
         cy="-117"
         r="1.5"
         style="fill:none;stroke:#000000;stroke-width:0.1;stroke-miterlimit:4;stroke-dasharray:none"
         id="circle4580" />
    </g>
    <path
       d="m 402.87266,-46.22004 a 1.5,1.5 0 0 0 -1.5,-1.5 1.5,1.5 0 0 0 -1.5,1.5 1.5,1.5 0 0 0 1.5,1.5 1.5,1.5 0 0 0 1.5,-1.5 z m 5,-7 a 1.5,1.5 0 0 0 -1.5,-1.5 1.5,1.5 0 0 0 -1.5,1.5 1.5,1.5 0 0 0 1.5,1.5 1.5,1.5 0 0 0 1.5,-1.5 z m -10,0 a 1.5,1.5 0 0 0 -1.5,-1.5 1.5,1.5 0 0 0 -1.5,1.5 1.5,1.5 0 0 0 1.5,1.5 1.5,1.5 0 0 0 1.5,-1.5 z m 5,-7 a 1.5,1.5 0 0 0 -1.5,-1.5 1.5,1.5 0 0 0 -1.5,1.5 1.5,1.5 0 0 0 1.5,1.5 1.5,1.5 0 0 0 1.5,-1.5 z m -17,7 a 5.5,5.5 0 0 0 -5.5,-5.5 5.5,5.5 0 0 0 -5.5,5.5 5.5,5.5 0 0 0 5.5,5.5 5.5,5.5 0 0 0 5.5,-5.5 z m 24.5,-9.000007 a 2,2 0 0 0 -2.00002,-1.999993 l -14.26793,0 a 2,2 0 0 0 -1.73205,1 2,2 0 0 1 -1.73205,1 l -10.26795,0 a 9,9 0 1 0 0,18 l 10.26795,0 a 2,2 0 0 1 1.73205,1 2,2 0 0 0 1.73205,1 l 14.26793,0 a 2,2 0 0 0 2,-1.999998 l 2e-5,-18.000009"
       style="fill:none;stroke:#000000;stroke-width:0.1;stroke-miterlimit:4;stroke-dasharray:none"
       id="path8037"
       inkscape:connector-curvature="0" />
  </g>
  <g
     inkscape:transform-center-y="-8.6459692"
     inkscape:transform-center-x="-19.630458"
     transform="matrix(0.93328371,-0.35913997,-0.35913997,-0.93328371,-230.78194,218.25447)"
     id="g8039">
    <g
       id="use8041"
       transform="translate(370.5954,-163.08516)"
       inkscape:tile-x0="154.53475"
       inkscape:tile-y0="10.411864"
       style="fill:#000000;fill-opacity:1">
      <circle
         transform="scale(1,-1)"
         cx="50"
         cy="-110"
         r="8"
         style="fill:none;stroke:#000000;stroke-width:0.1;stroke-miterlimit:4;stroke-dasharray:none"
         id="circle4584" />
      <path
         id="path4586"
         d="M 50,121 A 11,11 0 0 0 50,99 L 24.000009,99 A 2,2 0 0 0 22,100.99999 l 0,18.00002 A 2,2 0 0 0 24.000009,121 L 50,121"
         style="fill:none;fill-rule:evenodd;stroke:#000000;stroke-width:0.1;stroke-miterlimit:4;stroke-dasharray:none"
         inkscape:connector-curvature="0" />
      <circle
         transform="scale(1,-1)"
         cx="31"
         cy="-103"
         r="1.5"
         style="fill:none;stroke:#000000;stroke-width:0.1;stroke-miterlimit:4;stroke-dasharray:none"
         id="circle4588" />
      <circle
         transform="scale(1,-1)"
         cx="26"
         cy="-110"
         r="1.5"
         style="fill:none;stroke:#000000;stroke-width:0.1;stroke-miterlimit:4;stroke-dasharray:none"
         id="circle4590" />
      <circle
         transform="scale(1,-1)"
         cx="36"
         cy="-110"
         r="1.5"
         style="fill:none;stroke:#000000;stroke-width:0.1;stroke-miterlimit:4;stroke-dasharray:none"
         id="circle4592" />
      <circle
         transform="scale(1,-1)"
         cx="31"
         cy="-117"
         r="1.5"
         style="fill:none;stroke:#000000;stroke-width:0.1;stroke-miterlimit:4;stroke-dasharray:none"
         id="circle4594" />
    </g>
    <path
       inkscape:connector-curvature="0"
       id="path8043"
       style="fill:none;stroke:#000000;stroke-width:0.1;stroke-miterlimit:4;stroke-dasharray:none"
       d="m 402.87266,-46.22004 a 1.5,1.5 0 0 0 -1.5,-1.5 1.5,1.5 0 0 0 -1.5,1.5 1.5,1.5 0 0 0 1.5,1.5 1.5,1.5 0 0 0 1.5,-1.5 z m 5,-7 a 1.5,1.5 0 0 0 -1.5,-1.5 1.5,1.5 0 0 0 -1.5,1.5 1.5,1.5 0 0 0 1.5,1.5 1.5,1.5 0 0 0 1.5,-1.5 z m -10,0 a 1.5,1.5 0 0 0 -1.5,-1.5 1.5,1.5 0 0 0 -1.5,1.5 1.5,1.5 0 0 0 1.5,1.5 1.5,1.5 0 0 0 1.5,-1.5 z m 5,-7 a 1.5,1.5 0 0 0 -1.5,-1.5 1.5,1.5 0 0 0 -1.5,1.5 1.5,1.5 0 0 0 1.5,1.5 1.5,1.5 0 0 0 1.5,-1.5 z m -17,7 a 5.5,5.5 0 0 0 -5.5,-5.5 5.5,5.5 0 0 0 -5.5,5.5 5.5,5.5 0 0 0 5.5,5.5 5.5,5.5 0 0 0 5.5,-5.5 z m 24.5,-9.000007 a 2,2 0 0 0 -2.00002,-1.999993 l -14.26793,0 a 2,2 0 0 0 -1.73205,1 2,2 0 0 1 -1.73205,1 l -10.26795,0 a 9,9 0 1 0 0,18 l 10.26795,0 a 2,2 0 0 1 1.73205,1 2,2 0 0 0 1.73205,1 l 14.26793,0 a 2,2 0 0 0 2,-1.999998 l 2e-5,-18.000009" />
  </g>
  <g
     transform="matrix(0,-1,-1,0,89.864652,551.36349)"
     id="g8045">
    <g
       id="use8047"
       transform="translate(370.5954,-163.08516)"
       inkscape:tile-x0="154.53475"
       inkscape:tile-y0="10.411864"
       style="fill:#000000;fill-opacity:1">
      <circle
         transform="scale(1,-1)"
         cx="50"
         cy="-110"
         r="8"
         style="fill:none;stroke:#000000;stroke-width:0.1;stroke-miterlimit:4;stroke-dasharray:none"
         id="circle4598" />
      <path
         id="path4600"
         d="M 50,121 A 11,11 0 0 0 50,99 L 24.000009,99 A 2,2 0 0 0 22,100.99999 l 0,18.00002 A 2,2 0 0 0 24.000009,121 L 50,121"
         style="fill:none;fill-rule:evenodd;stroke:#000000;stroke-width:0.1;stroke-miterlimit:4;stroke-dasharray:none"
         inkscape:connector-curvature="0" />
      <circle
         transform="scale(1,-1)"
         cx="31"
         cy="-103"
         r="1.5"
         style="fill:none;stroke:#000000;stroke-width:0.1;stroke-miterlimit:4;stroke-dasharray:none"
         id="circle4602" />
      <circle
         transform="scale(1,-1)"
         cx="26"
         cy="-110"
         r="1.5"
         style="fill:none;stroke:#000000;stroke-width:0.1;stroke-miterlimit:4;stroke-dasharray:none"
         id="circle4604" />
      <circle
         transform="scale(1,-1)"
         cx="36"
         cy="-110"
         r="1.5"
         style="fill:none;stroke:#000000;stroke-width:0.1;stroke-miterlimit:4;stroke-dasharray:none"
         id="circle4606" />
      <circle
         transform="scale(1,-1)"
         cx="31"
         cy="-117"
         r="1.5"
         style="fill:none;stroke:#000000;stroke-width:0.1;stroke-miterlimit:4;stroke-dasharray:none"
         id="circle4608" />
    </g>
    <path
       inkscape:connector-curvature="0"
       id="path8049"
       style="fill:none;stroke:#000000;stroke-width:0.1;stroke-miterlimit:4;stroke-dasharray:none"
       d="m 402.87266,-46.22004 a 1.5,1.5 0 0 0 -1.5,-1.5 1.5,1.5 0 0 0 -1.5,1.5 1.5,1.5 0 0 0 1.5,1.5 1.5,1.5 0 0 0 1.5,-1.5 z m 5,-7 a 1.5,1.5 0 0 0 -1.5,-1.5 1.5,1.5 0 0 0 -1.5,1.5 1.5,1.5 0 0 0 1.5,1.5 1.5,1.5 0 0 0 1.5,-1.5 z m -10,0 a 1.5,1.5 0 0 0 -1.5,-1.5 1.5,1.5 0 0 0 -1.5,1.5 1.5,1.5 0 0 0 1.5,1.5 1.5,1.5 0 0 0 1.5,-1.5 z m 5,-7 a 1.5,1.5 0 0 0 -1.5,-1.5 1.5,1.5 0 0 0 -1.5,1.5 1.5,1.5 0 0 0 1.5,1.5 1.5,1.5 0 0 0 1.5,-1.5 z m -17,7 a 5.5,5.5 0 0 0 -5.5,-5.5 5.5,5.5 0 0 0 -5.5,5.5 5.5,5.5 0 0 0 5.5,5.5 5.5,5.5 0 0 0 5.5,-5.5 z m 24.5,-9.000007 a 2,2 0 0 0 -2.00002,-1.999993 l -14.26793,0 a 2,2 0 0 0 -1.73205,1 2,2 0 0 1 -1.73205,1 l -10.26795,0 a 9,9 0 1 0 0,18 l 10.26795,0 a 2,2 0 0 1 1.73205,1 2,2 0 0 0 1.73205,1 l 14.26793,0 a 2,2 0 0 0 2,-1.999998 l 2e-5,-18.000009" />
  </g>
  <g
     inkscape:transform-center-y="5.9552257"
     inkscape:transform-center-x="-18.128579"
     transform="matrix(-0.93980327,-0.341716,0.341716,-0.93980327,556.40909,265.57985)"
     id="g8051">
    <g
       id="use8053"
       transform="translate(370.5954,-163.08516)"
       inkscape:tile-x0="154.53475"
       inkscape:tile-y0="10.411864"
       style="fill:#000000;fill-opacity:1">
      <circle
         transform="scale(1,-1)"
         cx="50"
         cy="-110"
         r="8"
         style="fill:none;stroke:#000000;stroke-width:0.1;stroke-miterlimit:4;stroke-dasharray:none"
         id="circle4612" />
      <path
         id="path4614"
         d="M 50,121 A 11,11 0 0 0 50,99 L 24.000009,99 A 2,2 0 0 0 22,100.99999 l 0,18.00002 A 2,2 0 0 0 24.000009,121 L 50,121"
         style="fill:none;fill-rule:evenodd;stroke:#000000;stroke-width:0.1;stroke-miterlimit:4;stroke-dasharray:none"
         inkscape:connector-curvature="0" />
      <circle
         transform="scale(1,-1)"
         cx="31"
         cy="-103"
         r="1.5"
         style="fill:none;stroke:#000000;stroke-width:0.1;stroke-miterlimit:4;stroke-dasharray:none"
         id="circle4616" />
      <circle
         transform="scale(1,-1)"
         cx="26"
         cy="-110"
         r="1.5"
         style="fill:none;stroke:#000000;stroke-width:0.1;stroke-miterlimit:4;stroke-dasharray:none"
         id="circle4618" />
      <circle
         transform="scale(1,-1)"
         cx="36"
         cy="-110"
         r="1.5"
         style="fill:none;stroke:#000000;stroke-width:0.1;stroke-miterlimit:4;stroke-dasharray:none"
         id="circle4620" />
      <circle
         transform="scale(1,-1)"
         cx="31"
         cy="-117"
         r="1.5"
         style="fill:none;stroke:#000000;stroke-width:0.1;stroke-miterlimit:4;stroke-dasharray:none"
         id="circle4622" />
    </g>
    <path
       inkscape:connector-curvature="0"
       id="path8055"
       style="fill:none;stroke:#000000;stroke-width:0.1;stroke-miterlimit:4;stroke-dasharray:none"
       d="m 402.87266,-46.22004 a 1.5,1.5 0 0 0 -1.5,-1.5 1.5,1.5 0 0 0 -1.5,1.5 1.5,1.5 0 0 0 1.5,1.5 1.5,1.5 0 0 0 1.5,-1.5 z m 5,-7 a 1.5,1.5 0 0 0 -1.5,-1.5 1.5,1.5 0 0 0 -1.5,1.5 1.5,1.5 0 0 0 1.5,1.5 1.5,1.5 0 0 0 1.5,-1.5 z m -10,0 a 1.5,1.5 0 0 0 -1.5,-1.5 1.5,1.5 0 0 0 -1.5,1.5 1.5,1.5 0 0 0 1.5,1.5 1.5,1.5 0 0 0 1.5,-1.5 z m 5,-7 a 1.5,1.5 0 0 0 -1.5,-1.5 1.5,1.5 0 0 0 -1.5,1.5 1.5,1.5 0 0 0 1.5,1.5 1.5,1.5 0 0 0 1.5,-1.5 z m -17,7 a 5.5,5.5 0 0 0 -5.5,-5.5 5.5,5.5 0 0 0 -5.5,5.5 5.5,5.5 0 0 0 5.5,5.5 5.5,5.5 0 0 0 5.5,-5.5 z m 24.5,-9.000007 a 2,2 0 0 0 -2.00002,-1.999993 l -14.26793,0 a 2,2 0 0 0 -1.73205,1 2,2 0 0 1 -1.73205,1 l -10.26795,0 a 9,9 0 1 0 0,18 l 10.26795,0 a 2,2 0 0 1 1.73205,1 2,2 0 0 0 1.73205,1 l 14.26793,0 a 2,2 0 0 0 2,-1.999998 l 2e-5,-18.000009" />
  </g>
</svg>
