<?xml version="1.0" encoding="UTF-8" standalone="no"?>
<svg
   xmlns:dc="http://purl.org/dc/elements/1.1/"
   xmlns:cc="http://creativecommons.org/ns#"
   xmlns:rdf="http://www.w3.org/1999/02/22-rdf-syntax-ns#"
   xmlns:svg="http://www.w3.org/2000/svg"
   xmlns="http://www.w3.org/2000/svg"
   xmlns:xlink="http://www.w3.org/1999/xlink"
   xmlns:sodipodi="http://sodipodi.sourceforge.net/DTD/sodipodi-0.dtd"
   xmlns:inkscape="http://www.inkscape.org/namespaces/inkscape"
   version="1.1"
   width="297mm"
   height="210mm"
   viewBox="0 0 297 210"
   id="svg2"
   inkscape:version="0.91 r13725"
   sodipodi:docname="cutting.svg">
  <sodipodi:namedview
     pagecolor="#ffffff"
     bordercolor="#666666"
     borderopacity="1"
     objecttolerance="10"
     gridtolerance="10"
     guidetolerance="10"
     inkscape:pageopacity="0"
     inkscape:pageshadow="2"
     inkscape:window-width="1920"
     inkscape:window-height="996"
     id="namedview73"
     showgrid="false"
     inkscape:zoom="0.31716403"
     inkscape:cx="1225.0517"
     inkscape:cy="-28.900077"
     inkscape:window-x="0"
     inkscape:window-y="29"
     inkscape:window-maximized="1"
     inkscape:current-layer="svg2" />
  <metadata
     id="metadata75">
    <rdf:RDF>
      <cc:Work
         rdf:about="">
        <dc:format>image/svg+xml</dc:format>
        <dc:type
           rdf:resource="http://purl.org/dc/dcmitype/StillImage" />
        <dc:title />
      </cc:Work>
    </rdf:RDF>
  </metadata>
  <!-- Working space 0 0 297 210 -->
  <defs
     id="defs4">
    <radialGradient
       r="19.571"
       gradientTransform="matrix(.14777 .23089 -.24680 .15795 -26.318 -62.617)"
       cx="282.65"
       cy="29.149"
       gradientUnits="userSpaceOnUse"
       id="radialGradient3661">
      <stop
         id="stop7"
         offset="0"
         stop-color="#71b2f8" />
      <stop
         id="stop9"
         offset="1"
         stop-color="#002795" />
    </radialGradient>
    <radialGradient
       r="19.571"
       gradientTransform="matrix(.26631 .065024 -.17931 .73438 -60.668 -36.938)"
       cx="270.58"
       cy="33.9"
       gradientUnits="userSpaceOnUse"
       id="radialGradient3817">
      <stop
         id="stop12"
         offset="0"
         stop-color="#ff6d0f" />
      <stop
         id="stop14"
         offset="1"
         stop-color="#ff1000" />
    </radialGradient>
  </defs>
  <!-- Set display:none to hide FreeCAD Logo -->
  <g
     inkscape:tile-y0="10.411864"
     inkscape:tile-x0="154.53475"
     inkscape:tile-h="22.1"
     inkscape:tile-w="39.099995"
     inkscape:tile-cy="21.461864"
     inkscape:tile-cx="174.08475"
     transform="translate(132.58475,-88.538136)"
     id="g4231">
    <circle
       id="circle51"
       style="fill:none;stroke:#000000;stroke-width:0.1;stroke-miterlimit:4;stroke-dasharray:none"
       r="8"
       cy="-110"
       cx="50"
       transform="scale(1,-1)" />
    <path
       inkscape:connector-curvature="0"
       style="fill:none;fill-rule:evenodd;stroke:#000000;stroke-width:0.1;stroke-miterlimit:4;stroke-dasharray:none"
       d="M 50,121 A 11,11 0 0 0 50,99 L 24.000009,99 A 2,2 0 0 0 22,100.99999 l 0,18.00002 A 2,2 0 0 0 24.000009,121 L 50,121"
       id="Sketch009001_w0000" />
    <circle
       id="circle54"
       style="fill:none;stroke:#000000;stroke-width:0.1;stroke-miterlimit:4;stroke-dasharray:none"
       r="1.5"
       cy="-103"
       cx="31"
       transform="scale(1,-1)" />
    <circle
       id="circle56"
       style="fill:none;stroke:#000000;stroke-width:0.1;stroke-miterlimit:4;stroke-dasharray:none"
       r="1.5"
       cy="-110"
       cx="26"
       transform="scale(1,-1)" />
    <circle
       id="circle58"
       style="fill:none;stroke:#000000;stroke-width:0.1;stroke-miterlimit:4;stroke-dasharray:none"
       r="1.5"
       cy="-110"
       cx="36"
       transform="scale(1,-1)" />
    <circle
       id="circle60"
       style="fill:none;stroke:#000000;stroke-width:0.1;stroke-miterlimit:4;stroke-dasharray:none"
       r="1.5"
       cy="-117"
       cx="31"
       transform="scale(1,-1)" />
  </g>
  <g
     inkscape:tile-y0="224.70212"
     inkscape:tile-x0="319.37585"
     inkscape:tile-h="22.1"
     inkscape:tile-w="18.1"
     inkscape:tile-cy="235.75212"
     inkscape:tile-cx="328.42585"
     transform="translate(649.47542,224.7041)"
     id="g4247">
    <path
       inkscape:connector-curvature="0"
       style="fill:none;fill-rule:evenodd;stroke:#000000;stroke-width:0.1;stroke-miterlimit:4;stroke-dasharray:none"
       d="M 37.999983,61 A 2,2 0 0 0 39.99998,59.000002 L 40,40.999993 A 2,2 0 0 0 37.999983,39 L 24,39 a 2,2 0 0 0 -2,2 l 0,18 a 2,2 0 0 0 2,2 l 13.999983,0"
       id="Sketch011001_w0000" />
    <circle
       id="circle23"
       style="fill:none;stroke:#000000;stroke-width:0.1;stroke-miterlimit:4;stroke-dasharray:none"
       r="1.5"
       cy="-50"
       cx="26"
       transform="scale(1,-1)" />
    <circle
       id="circle25"
       style="fill:none;stroke:#000000;stroke-width:0.1;stroke-miterlimit:4;stroke-dasharray:none"
       r="1.5"
       cy="-50"
       cx="36"
       transform="scale(1,-1)" />
    <circle
       id="circle27"
       style="fill:none;stroke:#000000;stroke-width:0.1;stroke-miterlimit:4;stroke-dasharray:none"
       r="1.5"
       cy="-43"
       cx="31"
       transform="scale(1,-1)" />
    <circle
       id="circle29"
       style="fill:none;stroke:#000000;stroke-width:0.1;stroke-miterlimit:4;stroke-dasharray:none"
       r="1.5"
       cy="-57"
       cx="31"
       transform="scale(1,-1)" />
  </g>
  <g
     inkscape:tile-y0="226.2911"
     inkscape:tile-x0="157.17069"
     inkscape:tile-h="22.1"
     inkscape:tile-w="29.701349"
     inkscape:tile-cy="237.3411"
     inkscape:tile-cx="172.02306"
     transform="translate(498.87161,256.29308)"
     id="g4254">
    <path
       inkscape:connector-curvature="0"
       style="fill:none;fill-rule:evenodd;stroke:#000000;stroke-width:0.1;stroke-miterlimit:4;stroke-dasharray:none"
       d="M 37.999983,31 A 2,2 0 0 0 39.99998,29.000002 L 40,10.999993 A 2,2 0 0 0 37.999983,9 L 23.732051,9 A 2,2 0 0 0 22,10 2,2 0 0 1 20.267949,11 l -7.865908,0 a 2,2 0 0 0 -1.149938,3.636351 17.97947,17.97947 0 0 0 7.441229,3.034278 9,9 0 0 1 0,4.658742 17.97947,17.97947 0 0 0 -7.441228,3.034278 A 2,2 0 0 0 12.402041,29 l 7.865908,0 A 2,2 0 0 1 22,30 a 2,2 0 0 0 1.732051,1 l 14.267932,0"
       id="Sketch012001_w0000" />
    <circle
       id="circle32"
       style="fill:none;stroke:#000000;stroke-width:0.1;stroke-miterlimit:4;stroke-dasharray:none"
       r="1.5"
       cy="-13"
       cx="31"
       transform="scale(1,-1)" />
    <circle
       id="circle34"
       style="fill:none;stroke:#000000;stroke-width:0.1;stroke-miterlimit:4;stroke-dasharray:none"
       r="1.5"
       cy="-20"
       cx="26"
       transform="scale(1,-1)" />
    <circle
       id="circle36"
       style="fill:none;stroke:#000000;stroke-width:0.1;stroke-miterlimit:4;stroke-dasharray:none"
       r="1.5"
       cy="-20"
       cx="36"
       transform="scale(1,-1)" />
    <circle
       id="circle38"
       style="fill:none;stroke:#000000;stroke-width:0.1;stroke-miterlimit:4;stroke-dasharray:none"
       r="1.5"
       cy="-27"
       cx="31"
       transform="scale(1,-1)" />
  </g>
  <g
     inkscape:tile-y0="124.35214"
     inkscape:tile-x0="150.52309"
     inkscape:tile-h="22.1"
     inkscape:tile-w="39.099996"
     inkscape:tile-cy="135.40214"
     inkscape:tile-cx="170.07309"
     id="g4286"
     transform="translate(506.96164,0.03208427)">
    <path
       id="path4288"
       d="M 40,70.999993 A 2,2 0 0 0 37.999983,69 L 23.732051,69 A 2,2 0 0 0 22,70 2,2 0 0 1 20.267949,71 L 10,71 a 9,9 0 1 0 0,18 l 10.267949,0 A 2,2 0 0 1 22,90 a 2,2 0 0 0 1.732051,1 l 14.267932,0 A 2,2 0 0 0 39.99998,89.000002 L 40,70.999993"
       style="fill:none;fill-rule:evenodd;stroke:#000000;stroke-width:0.1;stroke-miterlimit:4;stroke-dasharray:none"
       inkscape:connector-curvature="0" />
    <circle
       transform="scale(1,-1)"
       cx="10"
       cy="-80"
       r="5.5"
       style="fill:none;stroke:#000000;stroke-width:0.1;stroke-miterlimit:4;stroke-dasharray:none"
       id="circle4290" />
    <circle
       transform="scale(1,-1)"
       cx="31"
       cy="-73"
       r="1.5"
       style="fill:none;stroke:#000000;stroke-width:0.1;stroke-miterlimit:4;stroke-dasharray:none"
       id="circle4292" />
    <circle
       transform="scale(1,-1)"
       cx="26"
       cy="-80"
       r="1.5"
       style="fill:none;stroke:#000000;stroke-width:0.1;stroke-miterlimit:4;stroke-dasharray:none"
       id="circle4294" />
    <circle
       transform="scale(1,-1)"
       cx="36"
       cy="-80"
       r="1.5"
       style="fill:none;stroke:#000000;stroke-width:0.1;stroke-miterlimit:4;stroke-dasharray:none"
       id="circle4296" />
    <circle
       transform="scale(1,-1)"
       cx="31"
       cy="-87"
       r="1.5"
       style="fill:none;stroke:#000000;stroke-width:0.1;stroke-miterlimit:4;stroke-dasharray:none"
       id="circle4298" />
  </g>
  <use
     id="use5116"
     xlink:href="#g4231"
     inkscape:tiled-clone-of="#g4231"
     y="0"
     x="0" />
  <use
     id="use5118"
     transform="translate(0,23.205)"
     xlink:href="#g4231"
     inkscape:tiled-clone-of="#g4231"
     y="0"
     x="0" />
  <use
     id="use5120"
     transform="translate(0,46.41)"
     xlink:href="#g4231"
     inkscape:tiled-clone-of="#g4231"
     y="0"
     x="0" />
  <use
     id="use5122"
     transform="translate(0,69.615)"
     xlink:href="#g4231"
     inkscape:tiled-clone-of="#g4231"
     y="0"
     x="0" />
  <use
     id="use5124"
     transform="translate(41.054995,0)"
     xlink:href="#g4231"
     inkscape:tiled-clone-of="#g4231"
     y="0"
     x="0" />
  <use
     id="use5126"
     transform="translate(41.054995,23.205)"
     xlink:href="#g4231"
     inkscape:tiled-clone-of="#g4231"
     y="0"
     x="0" />
  <use
     id="use5128"
     transform="translate(41.054995,46.41)"
     xlink:href="#g4231"
     inkscape:tiled-clone-of="#g4231"
     y="0"
     x="0" />
  <use
     id="use5130"
     transform="translate(41.054995,69.615)"
     xlink:href="#g4231"
     inkscape:tiled-clone-of="#g4231"
     y="0"
     x="0" />
  <use
     id="use5132"
     transform="translate(82.109989,0)"
     xlink:href="#g4231"
     inkscape:tiled-clone-of="#g4231"
     y="0"
     x="0" />
  <use
     id="use5134"
     transform="translate(82.109989,23.205)"
     xlink:href="#g4231"
     inkscape:tiled-clone-of="#g4231"
     y="0"
     x="0" />
  <use
     id="use5136"
     transform="translate(82.109989,46.41)"
     xlink:href="#g4231"
     inkscape:tiled-clone-of="#g4231"
     y="0"
     x="0" />
  <use
     id="use5138"
     transform="translate(82.109989,69.615)"
     xlink:href="#g4231"
     inkscape:tiled-clone-of="#g4231"
     y="0"
     x="0" />
  <use
     id="use5140"
     transform="translate(123.16498,0)"
     xlink:href="#g4231"
     inkscape:tiled-clone-of="#g4231"
     y="0"
     x="0" />
  <use
     id="use5142"
     transform="translate(123.16498,23.205)"
     xlink:href="#g4231"
     inkscape:tiled-clone-of="#g4231"
     y="0"
     x="0" />
  <use
     id="use5144"
     transform="translate(123.16498,46.41)"
     xlink:href="#g4231"
     inkscape:tiled-clone-of="#g4231"
     y="0"
     x="0" />
  <use
     id="use5146"
     transform="translate(123.16498,69.615)"
     xlink:href="#g4231"
     inkscape:tiled-clone-of="#g4231"
     y="0"
     x="0" />
  <use
     height="100%"
     width="100%"
     transform="translate(1.9947626e-6,-2.6679422e-7)"
     inkscape:tile-y0="124.35214"
     inkscape:tile-x0="150.52309"
     inkscape:tile-h="22.1"
     inkscape:tile-w="39.099996"
     inkscape:tile-cy="135.40214"
     inkscape:tile-cx="170.07309"
     id="use5182"
     xlink:href="#g4286"
     inkscape:tiled-clone-of="#g4286"
     y="0"
     x="0" />
  <use
     height="100%"
     width="100%"
     transform="translate(1.9947626e-6,1.7332057e-6)"
     id="use5262"
     xlink:href="#g4254"
     inkscape:tiled-clone-of="#g4254"
     y="0"
     x="0" />
  <use
     height="100%"
     width="100%"
     id="use5264"
     transform="translate(1.9947626e-6,23.205003)"
     xlink:href="#g4254"
     inkscape:tiled-clone-of="#g4254"
     y="0"
     x="0" />
  <use
     height="100%"
     width="100%"
     id="use5266"
     transform="translate(1.9947626e-6,46.410003)"
     xlink:href="#g4254"
     inkscape:tiled-clone-of="#g4254"
     y="0"
     x="0" />
  <use
     height="100%"
     width="100%"
     id="use5268"
     transform="translate(1.9947626e-6,69.615003)"
     xlink:href="#g4254"
     inkscape:tiled-clone-of="#g4254"
     y="0"
     x="0" />
  <use
     height="100%"
     width="100%"
     id="use5270"
     transform="translate(31.186422,1.7332057e-6)"
     xlink:href="#g4254"
     inkscape:tiled-clone-of="#g4254"
     y="0"
     x="0" />
  <use
     height="100%"
     width="100%"
     id="use5272"
     transform="translate(31.186422,23.205003)"
     xlink:href="#g4254"
     inkscape:tiled-clone-of="#g4254"
     y="0"
     x="0" />
  <use
     height="100%"
     width="100%"
     id="use5274"
     transform="translate(31.186422,46.410003)"
     xlink:href="#g4254"
     inkscape:tiled-clone-of="#g4254"
     y="0"
     x="0" />
  <use
     height="100%"
     width="100%"
     id="use5276"
     transform="translate(31.186422,69.615003)"
     xlink:href="#g4254"
     inkscape:tiled-clone-of="#g4254"
     y="0"
     x="0" />
  <use
     height="100%"
     width="100%"
     id="use5278"
     transform="translate(62.372832,1.7332057e-6)"
     xlink:href="#g4254"
     inkscape:tiled-clone-of="#g4254"
     y="0"
     x="0" />
  <use
     height="100%"
     width="100%"
     id="use5280"
     transform="translate(62.372832,23.205003)"
     xlink:href="#g4254"
     inkscape:tiled-clone-of="#g4254"
     y="0"
     x="0" />
  <use
     height="100%"
     width="100%"
     id="use5282"
     transform="translate(62.372832,46.410003)"
     xlink:href="#g4254"
     inkscape:tiled-clone-of="#g4254"
     y="0"
     x="0" />
  <use
     height="100%"
     width="100%"
     id="use5284"
     transform="translate(62.372832,69.615003)"
     xlink:href="#g4254"
     inkscape:tiled-clone-of="#g4254"
     y="0"
     x="0" />
  <use
     height="100%"
     width="100%"
     id="use5286"
     transform="translate(93.559252,1.7332057e-6)"
     xlink:href="#g4254"
     inkscape:tiled-clone-of="#g4254"
     y="0"
     x="0" />
  <use
     height="100%"
     width="100%"
     id="use5288"
     transform="translate(93.559252,23.205003)"
     xlink:href="#g4254"
     inkscape:tiled-clone-of="#g4254"
     y="0"
     x="0" />
  <use
     height="100%"
     width="100%"
     id="use5290"
     transform="translate(93.559252,46.410003)"
     xlink:href="#g4254"
     inkscape:tiled-clone-of="#g4254"
     y="0"
     x="0" />
  <use
     height="100%"
     width="100%"
     id="use5292"
     transform="translate(93.559252,69.615003)"
     xlink:href="#g4254"
     inkscape:tiled-clone-of="#g4254"
     y="0"
     x="0" />
  <use
     height="100%"
     width="100%"
     id="use5294"
     transform="translate(124.74567,1.7332057e-6)"
     xlink:href="#g4254"
     inkscape:tiled-clone-of="#g4254"
     y="0"
     x="0" />
  <use
     height="100%"
     width="100%"
     id="use5296"
     transform="translate(124.74567,23.205003)"
     xlink:href="#g4254"
     inkscape:tiled-clone-of="#g4254"
     y="0"
     x="0" />
  <use
     height="100%"
     width="100%"
     id="use5298"
     transform="translate(124.74567,46.410003)"
     xlink:href="#g4254"
     inkscape:tiled-clone-of="#g4254"
     y="0"
     x="0" />
  <use
     height="100%"
     width="100%"
     id="use5300"
     transform="translate(124.74567,69.615003)"
     xlink:href="#g4254"
     inkscape:tiled-clone-of="#g4254"
     y="0"
     x="0" />
  <use
     height="100%"
     width="100%"
     transform="translate(1.9947624e-6,1.7332057e-6)"
     id="use5302"
     xlink:href="#g4247"
     inkscape:tiled-clone-of="#g4247"
     y="0"
     x="0" />
  <use
     height="100%"
     width="100%"
     id="use5304"
     transform="translate(1.9947624e-6,23.205003)"
     xlink:href="#g4247"
     inkscape:tiled-clone-of="#g4247"
     y="0"
     x="0" />
  <use
     height="100%"
     width="100%"
     id="use5306"
     transform="translate(1.9947624e-6,46.410003)"
     xlink:href="#g4247"
     inkscape:tiled-clone-of="#g4247"
     y="0"
     x="0" />
  <use
     height="100%"
     width="100%"
     id="use5308"
     transform="translate(1.9947624e-6,69.615003)"
     xlink:href="#g4247"
     inkscape:tiled-clone-of="#g4247"
     y="0"
     x="0" />
  <use
     height="100%"
     width="100%"
     id="use5310"
     transform="translate(19.005002,1.7332057e-6)"
     xlink:href="#g4247"
     inkscape:tiled-clone-of="#g4247"
     y="0"
     x="0" />
  <use
     height="100%"
     width="100%"
     id="use5312"
     transform="translate(19.005002,23.205003)"
     xlink:href="#g4247"
     inkscape:tiled-clone-of="#g4247"
     y="0"
     x="0" />
  <use
     height="100%"
     width="100%"
     id="use5314"
     transform="translate(19.005002,46.410003)"
     xlink:href="#g4247"
     inkscape:tiled-clone-of="#g4247"
     y="0"
     x="0" />
  <use
     height="100%"
     width="100%"
     id="use5316"
     transform="translate(19.005002,69.615003)"
     xlink:href="#g4247"
     inkscape:tiled-clone-of="#g4247"
     y="0"
     x="0" />
  <use
     height="100%"
     width="100%"
     id="use5318"
     transform="translate(38.010002,1.7332057e-6)"
     xlink:href="#g4247"
     inkscape:tiled-clone-of="#g4247"
     y="0"
     x="0" />
  <use
     height="100%"
     width="100%"
     id="use5320"
     transform="translate(38.010002,23.205003)"
     xlink:href="#g4247"
     inkscape:tiled-clone-of="#g4247"
     y="0"
     x="0" />
  <use
     height="100%"
     width="100%"
     id="use5322"
     transform="translate(38.010002,46.410003)"
     xlink:href="#g4247"
     inkscape:tiled-clone-of="#g4247"
     y="0"
     x="0" />
  <use
     height="100%"
     width="100%"
     id="use5324"
     transform="translate(38.010002,69.615003)"
     xlink:href="#g4247"
     inkscape:tiled-clone-of="#g4247"
     y="0"
     x="0" />
  <use
     height="100%"
     width="100%"
     id="use5326"
     transform="translate(57.015002,1.7332057e-6)"
     xlink:href="#g4247"
     inkscape:tiled-clone-of="#g4247"
     y="0"
     x="0" />
  <use
     height="100%"
     width="100%"
     id="use5328"
     transform="translate(57.015002,23.205003)"
     xlink:href="#g4247"
     inkscape:tiled-clone-of="#g4247"
     y="0"
     x="0" />
  <use
     height="100%"
     width="100%"
     id="use5330"
     transform="translate(57.015002,46.410003)"
     xlink:href="#g4247"
     inkscape:tiled-clone-of="#g4247"
     y="0"
     x="0" />
  <use
     height="100%"
     width="100%"
     id="use5332"
     transform="translate(57.015002,69.615003)"
     xlink:href="#g4247"
     inkscape:tiled-clone-of="#g4247"
     y="0"
     x="0" />
  <use
     height="100%"
     width="100%"
     id="use5334"
     transform="translate(76.020002,1.7332057e-6)"
     xlink:href="#g4247"
     inkscape:tiled-clone-of="#g4247"
     y="0"
     x="0" />
  <use
     height="100%"
     width="100%"
     id="use5336"
     transform="translate(76.020002,23.205003)"
     xlink:href="#g4247"
     inkscape:tiled-clone-of="#g4247"
     y="0"
     x="0" />
  <use
     height="100%"
     width="100%"
     id="use5338"
     transform="translate(76.020002,46.410003)"
     xlink:href="#g4247"
     inkscape:tiled-clone-of="#g4247"
     y="0"
     x="0" />
  <use
     height="100%"
     width="100%"
     id="use5340"
     transform="translate(76.020002,69.615003)"
     xlink:href="#g4247"
     inkscape:tiled-clone-of="#g4247"
     y="0"
     x="0" />
  <g
     inkscape:tile-y0="223.27203"
     inkscape:tile-x0="424.15339"
     inkscape:tile-h="22.1"
     inkscape:tile-w="39.099995"
     inkscape:tile-cy="234.32203"
     inkscape:tile-cx="443.70339"
     transform="translate(490.86313,243.61299)"
     id="g4261">
    <g
       id="g4278">
      <circle
         transform="scale(1,-1)"
         cx="50"
         cy="-140"
         r="6.5"
         style="fill:none;stroke:#000000;stroke-width:0.1;stroke-miterlimit:4;stroke-dasharray:none"
         id="circle62" />
      <path
         id="Sketch010001_w0000"
         d="m 50,151 a 11,11 0 0 0 0,-22 l -25.999991,0 A 2,2 0 0 0 22,130.99999 l 0,18.00002 A 2,2 0 0 0 24.000009,151 L 50,151"
         style="fill:none;fill-rule:evenodd;stroke:#000000;stroke-width:0.1;stroke-miterlimit:4;stroke-dasharray:none"
         inkscape:connector-curvature="0" />
      <circle
         transform="scale(1,-1)"
         cx="31"
         cy="-133"
         r="1.5"
         style="fill:none;stroke:#000000;stroke-width:0.1;stroke-miterlimit:4;stroke-dasharray:none"
         id="circle65" />
      <circle
         transform="scale(1,-1)"
         cx="26"
         cy="-140"
         r="1.5"
         style="fill:none;stroke:#000000;stroke-width:0.1;stroke-miterlimit:4;stroke-dasharray:none"
         id="circle67" />
      <circle
         transform="scale(1,-1)"
         cx="36"
         cy="-140"
         r="1.5"
         style="fill:none;stroke:#000000;stroke-width:0.1;stroke-miterlimit:4;stroke-dasharray:none"
         id="circle69" />
      <circle
         transform="scale(1,-1)"
         cx="31"
         cy="-147"
         r="1.5"
         style="fill:none;stroke:#000000;stroke-width:0.1;stroke-miterlimit:4;stroke-dasharray:none"
         id="circle71" />
    </g>
  </g>
  <use
     inkscape:tile-y0="372.56299"
     inkscape:tile-x0="512.81313"
     inkscape:tile-h="22.1"
     inkscape:tile-w="39.099995"
     inkscape:tile-cy="383.61299"
     inkscape:tile-cx="532.36313"
     id="use5440"
     xlink:href="#g4261"
     inkscape:tiled-clone-of="#g4261"
     y="0"
     x="0"
     width="100%"
     height="100%" />
  <use
     inkscape:tile-y0="68.982083"
     inkscape:tile-x0="507.91164"
     inkscape:tile-h="22.1"
     inkscape:tile-w="39.099996"
     inkscape:tile-cy="80.032083"
     inkscape:tile-cx="527.46164"
     height="100%"
     width="100%"
     transform="translate(1.9947626e-6,-2.6679424e-7)"
     id="use5510"
     xlink:href="#use5182"
     inkscape:tiled-clone-of="#use5182"
     y="0"
     x="0" />
  <rect
     y="30.014273"
     x="459.41562"
     height="499.52615"
     width="374.52615"
     id="rect5590"
     style="opacity:0.17900002;fill:none;fill-opacity:1;fill-rule:nonzero;stroke:#000000;stroke-width:0.47386387;stroke-linecap:square;stroke-linejoin:round;stroke-miterlimit:4;stroke-dasharray:none;stroke-dashoffset:0;stroke-opacity:1" />
  <use
     id="use5768"
     xlink:href="#use5510"
     inkscape:tiled-clone-of="#use5510"
     y="0"
     x="0" />
  <use
     id="use5770"
     transform="translate(0,24.31)"
     xlink:href="#use5510"
     inkscape:tiled-clone-of="#use5510"
     y="0"
     x="0" />
  <use
     id="use5772"
     transform="translate(0,48.62)"
     xlink:href="#use5510"
     inkscape:tiled-clone-of="#use5510"
     y="0"
     x="0" />
  <use
     id="use5774"
     transform="translate(0,72.93)"
     xlink:href="#use5510"
     inkscape:tiled-clone-of="#use5510"
     y="0"
     x="0" />
  <use
     id="use5776"
     transform="translate(0,97.24)"
     xlink:href="#use5510"
     inkscape:tiled-clone-of="#use5510"
     y="0"
     x="0" />
  <use
     id="use5778"
     transform="translate(0,121.55)"
     xlink:href="#use5510"
     inkscape:tiled-clone-of="#use5510"
     y="0"
     x="0" />
  <use
     id="use5780"
     transform="translate(0,145.86)"
     xlink:href="#use5510"
     inkscape:tiled-clone-of="#use5510"
     y="0"
     x="0" />
  <use
     id="use5782"
     transform="translate(0,170.17)"
     xlink:href="#use5510"
     inkscape:tiled-clone-of="#use5510"
     y="0"
     x="0" />
  <use
     id="use5784"
     transform="translate(41.054996,0)"
     xlink:href="#use5510"
     inkscape:tiled-clone-of="#use5510"
     y="0"
     x="0" />
  <use
     id="use5786"
     transform="translate(41.054996,24.31)"
     xlink:href="#use5510"
     inkscape:tiled-clone-of="#use5510"
     y="0"
     x="0" />
  <use
     id="use5788"
     transform="translate(41.054996,48.62)"
     xlink:href="#use5510"
     inkscape:tiled-clone-of="#use5510"
     y="0"
     x="0" />
  <use
     id="use5790"
     transform="translate(41.054996,72.93)"
     xlink:href="#use5510"
     inkscape:tiled-clone-of="#use5510"
     y="0"
     x="0" />
  <use
     id="use5792"
     transform="translate(41.054996,97.24)"
     xlink:href="#use5510"
     inkscape:tiled-clone-of="#use5510"
     y="0"
     x="0" />
  <use
     id="use5794"
     transform="translate(41.054996,121.55)"
     xlink:href="#use5510"
     inkscape:tiled-clone-of="#use5510"
     y="0"
     x="0" />
  <use
     id="use5796"
     transform="translate(41.054996,145.86)"
     xlink:href="#use5510"
     inkscape:tiled-clone-of="#use5510"
     y="0"
     x="0" />
  <use
     id="use5798"
     transform="translate(41.054996,170.17)"
     xlink:href="#use5510"
     inkscape:tiled-clone-of="#use5510"
     y="0"
     x="0" />
  <use
     id="use5800"
     transform="translate(82.109992,0)"
     xlink:href="#use5510"
     inkscape:tiled-clone-of="#use5510"
     y="0"
     x="0" />
  <use
     id="use5802"
     transform="translate(82.109992,24.31)"
     xlink:href="#use5510"
     inkscape:tiled-clone-of="#use5510"
     y="0"
     x="0" />
  <use
     id="use5804"
     transform="translate(82.109992,48.62)"
     xlink:href="#use5510"
     inkscape:tiled-clone-of="#use5510"
     y="0"
     x="0" />
  <use
     id="use5806"
     transform="translate(82.109992,72.93)"
     xlink:href="#use5510"
     inkscape:tiled-clone-of="#use5510"
     y="0"
     x="0" />
  <use
     id="use5808"
     transform="translate(82.109992,97.24)"
     xlink:href="#use5510"
     inkscape:tiled-clone-of="#use5510"
     y="0"
     x="0" />
  <use
     id="use5810"
     transform="translate(82.109992,121.55)"
     xlink:href="#use5510"
     inkscape:tiled-clone-of="#use5510"
     y="0"
     x="0" />
  <use
     id="use5812"
     transform="translate(82.109992,145.86)"
     xlink:href="#use5510"
     inkscape:tiled-clone-of="#use5510"
     y="0"
     x="0" />
  <use
     id="use5814"
     transform="translate(82.109992,170.17)"
     xlink:href="#use5510"
     inkscape:tiled-clone-of="#use5510"
     y="0"
     x="0" />
  <use
     id="use5816"
     transform="translate(123.16499,0)"
     xlink:href="#use5510"
     inkscape:tiled-clone-of="#use5510"
     y="0"
     x="0" />
  <use
     id="use5818"
     transform="translate(123.16499,24.31)"
     xlink:href="#use5510"
     inkscape:tiled-clone-of="#use5510"
     y="0"
     x="0" />
  <use
     id="use5820"
     transform="translate(123.16499,48.62)"
     xlink:href="#use5510"
     inkscape:tiled-clone-of="#use5510"
     y="0"
     x="0" />
  <use
     id="use5822"
     transform="translate(123.16499,72.93)"
     xlink:href="#use5510"
     inkscape:tiled-clone-of="#use5510"
     y="0"
     x="0" />
  <use
     id="use5824"
     transform="translate(123.16499,97.24)"
     xlink:href="#use5510"
     inkscape:tiled-clone-of="#use5510"
     y="0"
     x="0" />
  <use
     id="use5826"
     transform="translate(123.16499,121.55)"
     xlink:href="#use5510"
     inkscape:tiled-clone-of="#use5510"
     y="0"
     x="0" />
  <use
     id="use5828"
     transform="translate(123.16499,145.86)"
     xlink:href="#use5510"
     inkscape:tiled-clone-of="#use5510"
     y="0"
     x="0" />
  <use
     id="use5830"
     transform="translate(123.16499,170.17)"
     xlink:href="#use5510"
     inkscape:tiled-clone-of="#use5510"
     y="0"
     x="0" />
  <use
     id="use5832"
     transform="translate(164.21998,0)"
     xlink:href="#use5510"
     inkscape:tiled-clone-of="#use5510"
     y="0"
     x="0" />
  <use
     id="use5834"
     transform="translate(164.21998,24.31)"
     xlink:href="#use5510"
     inkscape:tiled-clone-of="#use5510"
     y="0"
     x="0" />
  <use
     id="use5836"
     transform="translate(164.21998,48.62)"
     xlink:href="#use5510"
     inkscape:tiled-clone-of="#use5510"
     y="0"
     x="0" />
  <use
     id="use5838"
     transform="translate(164.21998,72.93)"
     xlink:href="#use5510"
     inkscape:tiled-clone-of="#use5510"
     y="0"
     x="0" />
  <use
     id="use5840"
     transform="translate(164.21998,97.24)"
     xlink:href="#use5510"
     inkscape:tiled-clone-of="#use5510"
     y="0"
     x="0" />
  <use
     id="use5842"
     transform="translate(164.21998,121.55)"
     xlink:href="#use5510"
     inkscape:tiled-clone-of="#use5510"
     y="0"
     x="0" />
  <use
     id="use5844"
     transform="translate(164.21998,145.86)"
     xlink:href="#use5510"
     inkscape:tiled-clone-of="#use5510"
     y="0"
     x="0" />
  <use
     id="use5846"
     transform="translate(164.21998,170.17)"
     xlink:href="#use5510"
     inkscape:tiled-clone-of="#use5510"
     y="0"
     x="0" />
  <use
     id="use5848"
     transform="translate(205.27498,0)"
     xlink:href="#use5510"
     inkscape:tiled-clone-of="#use5510"
     y="0"
     x="0" />
  <use
     id="use5850"
     transform="translate(205.27498,24.31)"
     xlink:href="#use5510"
     inkscape:tiled-clone-of="#use5510"
     y="0"
     x="0" />
  <use
     id="use5852"
     transform="translate(205.27498,48.62)"
     xlink:href="#use5510"
     inkscape:tiled-clone-of="#use5510"
     y="0"
     x="0" />
  <use
     id="use5854"
     transform="translate(205.27498,72.93)"
     xlink:href="#use5510"
     inkscape:tiled-clone-of="#use5510"
     y="0"
     x="0" />
  <use
     id="use5856"
     transform="translate(205.27498,97.24)"
     xlink:href="#use5510"
     inkscape:tiled-clone-of="#use5510"
     y="0"
     x="0" />
  <use
     id="use5858"
     transform="translate(205.27498,121.55)"
     xlink:href="#use5510"
     inkscape:tiled-clone-of="#use5510"
     y="0"
     x="0" />
  <use
     id="use5860"
     transform="translate(205.27498,145.86)"
     xlink:href="#use5510"
     inkscape:tiled-clone-of="#use5510"
     y="0"
     x="0" />
  <use
     id="use5862"
     transform="translate(205.27498,170.17)"
     xlink:href="#use5510"
     inkscape:tiled-clone-of="#use5510"
     y="0"
     x="0" />
  <use
     id="use6007"
     xlink:href="#use5440"
     inkscape:tiled-clone-of="#use5440"
     y="0"
     x="0" />
  <use
     id="use6009"
     transform="translate(0,24.31)"
     xlink:href="#use5440"
     inkscape:tiled-clone-of="#use5440"
     y="0"
     x="0" />
  <use
     id="use6011"
     transform="translate(0,48.62)"
     xlink:href="#use5440"
     inkscape:tiled-clone-of="#use5440"
     y="0"
     x="0" />
  <use
     id="use6013"
     transform="translate(0,72.93)"
     xlink:href="#use5440"
     inkscape:tiled-clone-of="#use5440"
     y="0"
     x="0" />
  <use
     id="use6015"
     transform="translate(41.054995,0)"
     xlink:href="#use5440"
     inkscape:tiled-clone-of="#use5440"
     y="0"
     x="0" />
  <use
     id="use6017"
     transform="translate(41.054995,24.31)"
     xlink:href="#use5440"
     inkscape:tiled-clone-of="#use5440"
     y="0"
     x="0" />
  <use
     id="use6019"
     transform="translate(41.054995,48.62)"
     xlink:href="#use5440"
     inkscape:tiled-clone-of="#use5440"
     y="0"
     x="0" />
  <use
     id="use6021"
     transform="translate(41.054995,72.93)"
     xlink:href="#use5440"
     inkscape:tiled-clone-of="#use5440"
     y="0"
     x="0" />
  <use
     id="use6023"
     transform="translate(82.109989,0)"
     xlink:href="#use5440"
     inkscape:tiled-clone-of="#use5440"
     y="0"
     x="0" />
  <use
     id="use6025"
     transform="translate(82.109989,24.31)"
     xlink:href="#use5440"
     inkscape:tiled-clone-of="#use5440"
     y="0"
     x="0" />
  <use
     id="use6027"
     transform="translate(82.109989,48.62)"
     xlink:href="#use5440"
     inkscape:tiled-clone-of="#use5440"
     y="0"
     x="0" />
  <use
     id="use6029"
     transform="translate(82.109989,72.93)"
     xlink:href="#use5440"
     inkscape:tiled-clone-of="#use5440"
     y="0"
     x="0" />
  <use
     id="use6031"
     transform="translate(123.16498,0)"
     xlink:href="#use5440"
     inkscape:tiled-clone-of="#use5440"
     y="0"
     x="0" />
  <use
     id="use6033"
     transform="translate(123.16498,24.31)"
     xlink:href="#use5440"
     inkscape:tiled-clone-of="#use5440"
     y="0"
     x="0" />
  <use
     id="use6035"
     transform="translate(123.16498,48.62)"
     xlink:href="#use5440"
     inkscape:tiled-clone-of="#use5440"
     y="0"
     x="0" />
  <use
     id="use6037"
     transform="translate(123.16498,72.93)"
     xlink:href="#use5440"
     inkscape:tiled-clone-of="#use5440"
     y="0"
     x="0" />
  <use
     id="use6039"
     transform="translate(164.21998,0)"
     xlink:href="#use5440"
     inkscape:tiled-clone-of="#use5440"
     y="0"
     x="0" />
  <use
     id="use6041"
     transform="translate(164.21998,24.31)"
     xlink:href="#use5440"
     inkscape:tiled-clone-of="#use5440"
     y="0"
     x="0" />
  <use
     id="use6043"
     transform="translate(164.21998,48.62)"
     xlink:href="#use5440"
     inkscape:tiled-clone-of="#use5440"
     y="0"
     x="0" />
  <use
     id="use6045"
     transform="translate(164.21998,72.93)"
     xlink:href="#use5440"
     inkscape:tiled-clone-of="#use5440"
     y="0"
     x="0" />
  <use
     id="use6047"
     transform="translate(205.27497,0)"
     xlink:href="#use5440"
     inkscape:tiled-clone-of="#use5440"
     y="0"
     x="0" />
  <use
     id="use6049"
     transform="translate(205.27497,24.31)"
     xlink:href="#use5440"
     inkscape:tiled-clone-of="#use5440"
     y="0"
     x="0" />
  <use
     id="use6051"
     transform="translate(205.27497,48.62)"
     xlink:href="#use5440"
     inkscape:tiled-clone-of="#use5440"
     y="0"
     x="0" />
  <use
     id="use6053"
     transform="translate(205.27497,72.93)"
     xlink:href="#use5440"
     inkscape:tiled-clone-of="#use5440"
     y="0"
     x="0" />
  <path
     d="m 130.60382,41.612289 a 1.5,1.5 0 0 1 -1.5,1.5 1.5,1.5 0 0 1 -1.5,-1.5 1.5,1.5 0 0 1 1.5,-1.5 1.5,1.5 0 0 1 1.5,1.5 z m 5,7 a 1.5,1.5 0 0 1 -1.5,1.5 1.5,1.5 0 0 1 -1.5,-1.5 1.5,1.5 0 0 1 1.5,-1.5 1.5,1.5 0 0 1 1.5,1.5 z m -10,0 a 1.5,1.5 0 0 1 -1.5,1.5 1.5,1.5 0 0 1 -1.5,-1.5 1.5,1.5 0 0 1 1.5,-1.5 1.5,1.5 0 0 1 1.5,1.5 z m 5,7 a 1.5,1.5 0 0 1 -1.5,1.5 1.5,1.5 0 0 1 -1.5,-1.5 1.5,1.5 0 0 1 1.5,-1.5 1.5,1.5 0 0 1 1.5,1.5 z m 17.5,-17.999999 a 11,11 0 0 1 0,22 l -25.99999,0 a 2,2 0 0 1 -2.00001,-1.99999 l 0,-18.00002 a 2,2 0 0 1 2.00001,-1.99999 l 25.99999,0 m 8,10.999999 a 8,8 0 0 1 -8,8 8,8 0 0 1 -8,-8 8,8 0 0 1 8,-8 8,8 0 0 1 8,8 z"
     style="fill:none;stroke:#000000;stroke-width:0.1;stroke-miterlimit:4;stroke-dasharray:none;fill-opacity:1"
     transform="scale(1,-1)"
     id="circle6071" />
  <text
     x="130.60382"
     y="-41.612289"
     transform="rotate(0, 130.60382, -41.612289)"
     id="text6623">
    <tspan
       sodipodi:role="line"
       style="font-size:2.82222222223;vertical-align:bottom;fill-opacity:1.0;font-style:normal;fill:#000000;font-weight:normal;stroke:none;text-anchor:start;text-align:center"
       dy="-0.282222222223"
       id="tspan6625">198,81 mm</tspan>
  </text>
  <text
     x="952.99103"
     y="-119.37652"
     id="text7009">
    <tspan
       y="-119.37652"
       x="952.99103"
       sodipodi:role="line"
       style="font-style:normal;font-weight:normal;font-size:2.82222223px;text-align:center;text-anchor:start;fill:#000000;fill-opacity:1;stroke:none"
       dy="-0.28222221"
       id="tspan7011">182,27 mm</tspan>
  </text>
</svg>
