<?xml version="1.0" encoding="UTF-8" standalone="no"?>
<svg
   xmlns:dc="http://purl.org/dc/elements/1.1/"
   xmlns:cc="http://creativecommons.org/ns#"
   xmlns:rdf="http://www.w3.org/1999/02/22-rdf-syntax-ns#"
   xmlns:svg="http://www.w3.org/2000/svg"
   xmlns="http://www.w3.org/2000/svg"
   xmlns:sodipodi="http://sodipodi.sourceforge.net/DTD/sodipodi-0.dtd"
   xmlns:inkscape="http://www.inkscape.org/namespaces/inkscape"
   version="1.1"
   width="61.673004mm"
   height="278.21255mm"
   viewBox="0 0 61.673004 278.21255"
   id="svg2"
   inkscape:version="0.91 r13725"
   sodipodi:docname="one_link_assembly.svg">
  <metadata
     id="metadata75">
    <rdf:RDF>
      <cc:Work
         rdf:about="">
        <dc:format>image/svg+xml</dc:format>
        <dc:type
           rdf:resource="http://purl.org/dc/dcmitype/StillImage" />
        <dc:title></dc:title>
      </cc:Work>
    </rdf:RDF>
  </metadata>
  <sodipodi:namedview
     pagecolor="#ffffff"
     bordercolor="#666666"
     borderopacity="1"
     objecttolerance="10"
     gridtolerance="10"
     guidetolerance="10"
     inkscape:pageopacity="0"
     inkscape:pageshadow="2"
     inkscape:window-width="1920"
     inkscape:window-height="996"
     id="namedview73"
     showgrid="false"
     fit-margin-top="0"
     fit-margin-left="0"
     fit-margin-right="0"
     fit-margin-bottom="0"
     inkscape:zoom="0.63432804"
     inkscape:cx="-64.363885"
     inkscape:cy="441.6251"
     inkscape:window-x="0"
     inkscape:window-y="29"
     inkscape:window-maximized="1"
     inkscape:current-layer="svg2" />
  <!-- Working space 0 0 297 210 -->
  <defs
     id="defs4">
    <radialGradient
       id="radialGradient3661"
       gradientUnits="userSpaceOnUse"
       cy="29.149"
       cx="282.64999"
       gradientTransform="matrix(0.14777,0.23089,-0.2468,0.15795,-26.318,-62.617)"
       r="19.570999">
      <stop
         stop-color="#71b2f8"
         offset="0"
         id="stop7" />
      <stop
         stop-color="#002795"
         offset="1"
         id="stop9" />
    </radialGradient>
    <radialGradient
       id="radialGradient3817"
       gradientUnits="userSpaceOnUse"
       cy="33.900002"
       cx="270.57999"
       gradientTransform="matrix(0.26631,0.065024,-0.17931,0.73438,-60.668,-36.938)"
       r="19.570999">
      <stop
         stop-color="#ff6d0f"
         offset="0"
         id="stop12" />
      <stop
         stop-color="#ff1000"
         offset="1"
         id="stop14" />
    </radialGradient>
  </defs>
  <!-- Set display:none to hide FreeCAD Logo -->
  <g
     id="g4255"
     transform="translate(-0.95000391,37.3025)">
    <path
       id="Sketch011001_w0000"
       d="M 37.999983,61 A 2,2 0 0 0 39.99998,59.000002 L 40,40.999993 A 2,2 0 0 0 37.999983,39 L 24,39 a 2,2 0 0 0 -2,2 l 0,18 a 2,2 0 0 0 2,2 l 13.999983,0"
       style="fill:none;fill-rule:evenodd;stroke:#000000;stroke-width:0.1;stroke-miterlimit:4;stroke-dasharray:none"
       inkscape:connector-curvature="0" />
    <circle
       transform="scale(1,-1)"
       cx="26"
       cy="-50"
       r="1.5"
       style="fill:none;stroke:#000000;stroke-width:0.1;stroke-miterlimit:4;stroke-dasharray:none"
       id="circle23" />
    <circle
       transform="scale(1,-1)"
       cx="36"
       cy="-50"
       r="1.5"
       style="fill:none;stroke:#000000;stroke-width:0.1;stroke-miterlimit:4;stroke-dasharray:none"
       id="circle25" />
    <circle
       transform="scale(1,-1)"
       cx="31"
       cy="-43"
       r="1.5"
       style="fill:none;stroke:#000000;stroke-width:0.1;stroke-miterlimit:4;stroke-dasharray:none"
       id="circle27" />
    <circle
       transform="scale(1,-1)"
       cx="31"
       cy="-57"
       r="1.5"
       style="fill:none;stroke:#000000;stroke-width:0.1;stroke-miterlimit:4;stroke-dasharray:none"
       id="circle29" />
  </g>
  <g
     id="g4262"
     transform="translate(-0.95000391,17.565714)">
    <path
       id="Sketch012001_w0000"
       d="M 37.999983,31 A 2,2 0 0 0 39.99998,29.000002 L 40,10.999993 A 2,2 0 0 0 37.999983,9 L 23.732051,9 A 2,2 0 0 0 22,10 2,2 0 0 1 20.267949,11 l -7.865908,0 a 2,2 0 0 0 -1.149938,3.636351 17.97947,17.97947 0 0 0 7.441229,3.034278 9,9 0 0 1 0,4.658742 17.97947,17.97947 0 0 0 -7.441228,3.034278 A 2,2 0 0 0 12.402041,29 l 7.865908,0 A 2,2 0 0 1 22,30 a 2,2 0 0 0 1.732051,1 l 14.267932,0"
       style="fill:none;fill-rule:evenodd;stroke:#000000;stroke-width:0.1;stroke-miterlimit:4;stroke-dasharray:none"
       inkscape:connector-curvature="0" />
    <circle
       transform="scale(1,-1)"
       cx="31"
       cy="-13"
       r="1.5"
       style="fill:none;stroke:#000000;stroke-width:0.1;stroke-miterlimit:4;stroke-dasharray:none"
       id="circle32" />
    <circle
       transform="scale(1,-1)"
       cx="26"
       cy="-20"
       r="1.5"
       style="fill:none;stroke:#000000;stroke-width:0.1;stroke-miterlimit:4;stroke-dasharray:none"
       id="circle34" />
    <circle
       transform="scale(1,-1)"
       cx="36"
       cy="-20"
       r="1.5"
       style="fill:none;stroke:#000000;stroke-width:0.1;stroke-miterlimit:4;stroke-dasharray:none"
       id="circle36" />
    <circle
       transform="scale(1,-1)"
       cx="31"
       cy="-27"
       r="1.5"
       style="fill:none;stroke:#000000;stroke-width:0.1;stroke-miterlimit:4;stroke-dasharray:none"
       id="circle38" />
  </g>
  <g
     id="g4247"
     transform="translate(-0.95000391,-17.355174)">
    <path
       id="Sketch012002_w0000"
       d="M 40,70.999993 A 2,2 0 0 0 37.999983,69 L 23.732051,69 A 2,2 0 0 0 22,70 2,2 0 0 1 20.267949,71 L 10,71 a 9,9 0 1 0 0,18 l 10.267949,0 A 2,2 0 0 1 22,90 a 2,2 0 0 0 1.732051,1 l 14.267932,0 A 2,2 0 0 0 39.99998,89.000002 L 40,70.999993"
       style="fill:none;fill-rule:evenodd;stroke:#000000;stroke-width:0.1;stroke-miterlimit:4;stroke-dasharray:none"
       inkscape:connector-curvature="0" />
    <circle
       transform="scale(1,-1)"
       cx="10"
       cy="-80"
       r="5.5"
       style="fill:none;stroke:#000000;stroke-width:0.1;stroke-miterlimit:4;stroke-dasharray:none"
       id="circle41" />
    <circle
       transform="scale(1,-1)"
       cx="31"
       cy="-73"
       r="1.5"
       style="fill:none;stroke:#000000;stroke-width:0.1;stroke-miterlimit:4;stroke-dasharray:none"
       id="circle43" />
    <circle
       transform="scale(1,-1)"
       cx="26"
       cy="-80"
       r="1.5"
       style="fill:none;stroke:#000000;stroke-width:0.1;stroke-miterlimit:4;stroke-dasharray:none"
       id="circle45" />
    <circle
       transform="scale(1,-1)"
       cx="36"
       cy="-80"
       r="1.5"
       style="fill:none;stroke:#000000;stroke-width:0.1;stroke-miterlimit:4;stroke-dasharray:none"
       id="circle47" />
    <circle
       transform="scale(1,-1)"
       cx="31"
       cy="-87"
       r="1.5"
       style="fill:none;stroke:#000000;stroke-width:0.1;stroke-miterlimit:4;stroke-dasharray:none"
       id="circle49" />
  </g>
  <g
     id="g4239"
     transform="translate(0.62300909,28.576809)">
    <circle
       transform="scale(1,-1)"
       cx="50"
       cy="-110"
       r="8"
       style="fill:none;stroke:#000000;stroke-width:0.1;stroke-miterlimit:4;stroke-dasharray:none"
       id="circle51" />
    <path
       id="Sketch009001_w0000"
       d="M 50,121 A 11,11 0 0 0 50,99 L 24.000009,99 A 2,2 0 0 0 22,100.99999 l 0,18.00002 A 2,2 0 0 0 24.000009,121 L 50,121"
       style="fill:none;fill-rule:evenodd;stroke:#000000;stroke-width:0.1;stroke-miterlimit:4;stroke-dasharray:none"
       inkscape:connector-curvature="0" />
    <circle
       transform="scale(1,-1)"
       cx="31"
       cy="-103"
       r="1.5"
       style="fill:none;stroke:#000000;stroke-width:0.1;stroke-miterlimit:4;stroke-dasharray:none"
       id="circle54" />
    <circle
       transform="scale(1,-1)"
       cx="26"
       cy="-110"
       r="1.5"
       style="fill:none;stroke:#000000;stroke-width:0.1;stroke-miterlimit:4;stroke-dasharray:none"
       id="circle56" />
    <circle
       transform="scale(1,-1)"
       cx="36"
       cy="-110"
       r="1.5"
       style="fill:none;stroke:#000000;stroke-width:0.1;stroke-miterlimit:4;stroke-dasharray:none"
       id="circle58" />
    <circle
       transform="scale(1,-1)"
       cx="31"
       cy="-117"
       r="1.5"
       style="fill:none;stroke:#000000;stroke-width:0.1;stroke-miterlimit:4;stroke-dasharray:none"
       id="circle60" />
  </g>
  <g
     id="g4231"
     transform="translate(0.62300909,-26.778123)">
    <circle
       transform="scale(1,-1)"
       cx="50"
       cy="-140"
       r="6.5"
       style="fill:none;stroke:#000000;stroke-width:0.1;stroke-miterlimit:4;stroke-dasharray:none"
       id="circle62" />
    <path
       id="Sketch010001_w0000"
       d="m 50,151 a 11,11 0 0 0 0,-22 l -25.999991,0 A 2,2 0 0 0 22,130.99999 l 0,18.00002 A 2,2 0 0 0 24.000009,151 L 50,151"
       style="fill:none;fill-rule:evenodd;stroke:#000000;stroke-width:0.1;stroke-miterlimit:4;stroke-dasharray:none"
       inkscape:connector-curvature="0" />
    <circle
       transform="scale(1,-1)"
       cx="31"
       cy="-133"
       r="1.5"
       style="fill:none;stroke:#000000;stroke-width:0.1;stroke-miterlimit:4;stroke-dasharray:none"
       id="circle65" />
    <circle
       transform="scale(1,-1)"
       cx="26"
       cy="-140"
       r="1.5"
       style="fill:none;stroke:#000000;stroke-width:0.1;stroke-miterlimit:4;stroke-dasharray:none"
       id="circle67" />
    <circle
       transform="scale(1,-1)"
       cx="36"
       cy="-140"
       r="1.5"
       style="fill:none;stroke:#000000;stroke-width:0.1;stroke-miterlimit:4;stroke-dasharray:none"
       id="circle69" />
    <circle
       transform="scale(1,-1)"
       cx="31"
       cy="-147"
       r="1.5"
       style="fill:none;stroke:#000000;stroke-width:0.1;stroke-miterlimit:4;stroke-dasharray:none"
       id="circle71" />
  </g>
  <g
     transform="translate(-0.95000391,-68.95)"
     id="g4269">
    <path
       inkscape:connector-curvature="0"
       style="fill:none;fill-rule:evenodd;stroke:#000000;stroke-width:0.1;stroke-miterlimit:4;stroke-dasharray:none"
       d="M 40,70.999993 A 2,2 0 0 0 37.999983,69 L 23.732051,69 A 2,2 0 0 0 22,70 2,2 0 0 1 20.267949,71 L 10,71 a 9,9 0 1 0 0,18 l 10.267949,0 A 2,2 0 0 1 22,90 a 2,2 0 0 0 1.732051,1 l 14.267932,0 A 2,2 0 0 0 39.99998,89.000002 L 40,70.999993"
       id="path4271" />
    <circle
       id="circle4273"
       style="fill:none;stroke:#000000;stroke-width:0.1;stroke-miterlimit:4;stroke-dasharray:none"
       r="5.5"
       cy="-80"
       cx="10"
       transform="scale(1,-1)" />
    <circle
       id="circle4275"
       style="fill:none;stroke:#000000;stroke-width:0.1;stroke-miterlimit:4;stroke-dasharray:none"
       r="1.5"
       cy="-73"
       cx="31"
       transform="scale(1,-1)" />
    <circle
       id="circle4277"
       style="fill:none;stroke:#000000;stroke-width:0.1;stroke-miterlimit:4;stroke-dasharray:none"
       r="1.5"
       cy="-80"
       cx="26"
       transform="scale(1,-1)" />
    <circle
       id="circle4279"
       style="fill:none;stroke:#000000;stroke-width:0.1;stroke-miterlimit:4;stroke-dasharray:none"
       r="1.5"
       cy="-80"
       cx="36"
       transform="scale(1,-1)" />
    <circle
       id="circle4281"
       style="fill:none;stroke:#000000;stroke-width:0.1;stroke-miterlimit:4;stroke-dasharray:none"
       r="1.5"
       cy="-87"
       cx="31"
       transform="scale(1,-1)" />
  </g>
  <g
     transform="matrix(1,0,0,-1,0.62300909,240.91006)"
     id="g4283">
    <path
       inkscape:connector-curvature="0"
       style="fill:none;fill-rule:evenodd;stroke:#000000;stroke-width:0.1;stroke-miterlimit:4;stroke-dasharray:none"
       d="M 37.999983,61 A 2,2 0 0 0 39.99998,59.000002 L 40,40.999993 A 2,2 0 0 0 37.999983,39 L 24,39 a 2,2 0 0 0 -2,2 l 0,18 a 2,2 0 0 0 2,2 l 13.999983,0"
       id="path4285" />
    <circle
       id="circle4287"
       style="fill:none;stroke:#000000;stroke-width:0.1;stroke-miterlimit:4;stroke-dasharray:none"
       r="1.5"
       cy="-50"
       cx="26"
       transform="scale(1,-1)" />
    <circle
       id="circle4289"
       style="fill:none;stroke:#000000;stroke-width:0.1;stroke-miterlimit:4;stroke-dasharray:none"
       r="1.5"
       cy="-50"
       cx="36"
       transform="scale(1,-1)" />
    <circle
       id="circle4291"
       style="fill:none;stroke:#000000;stroke-width:0.1;stroke-miterlimit:4;stroke-dasharray:none"
       r="1.5"
       cy="-43"
       cx="31"
       transform="scale(1,-1)" />
    <circle
       id="circle4293"
       style="fill:none;stroke:#000000;stroke-width:0.1;stroke-miterlimit:4;stroke-dasharray:none"
       r="1.5"
       cy="-57"
       cx="31"
       transform="scale(1,-1)" />
  </g>
  <g
     transform="matrix(1,0,0,-1,0.62300909,260.64684)"
     id="g4295">
    <path
       inkscape:connector-curvature="0"
       style="fill:none;fill-rule:evenodd;stroke:#000000;stroke-width:0.1;stroke-miterlimit:4;stroke-dasharray:none"
       d="M 37.999983,31 A 2,2 0 0 0 39.99998,29.000002 L 40,10.999993 A 2,2 0 0 0 37.999983,9 L 23.732051,9 A 2,2 0 0 0 22,10 2,2 0 0 1 20.267949,11 l -7.865908,0 a 2,2 0 0 0 -1.149938,3.636351 17.97947,17.97947 0 0 0 7.441229,3.034278 9,9 0 0 1 0,4.658742 17.97947,17.97947 0 0 0 -7.441228,3.034278 A 2,2 0 0 0 12.402041,29 l 7.865908,0 A 2,2 0 0 1 22,30 a 2,2 0 0 0 1.732051,1 l 14.267932,0"
       id="path4297" />
    <circle
       id="circle4299"
       style="fill:none;stroke:#000000;stroke-width:0.1;stroke-miterlimit:4;stroke-dasharray:none"
       r="1.5"
       cy="-13"
       cx="31"
       transform="scale(1,-1)" />
    <circle
       id="circle4301"
       style="fill:none;stroke:#000000;stroke-width:0.1;stroke-miterlimit:4;stroke-dasharray:none"
       r="1.5"
       cy="-20"
       cx="26"
       transform="scale(1,-1)" />
    <circle
       id="circle4303"
       style="fill:none;stroke:#000000;stroke-width:0.1;stroke-miterlimit:4;stroke-dasharray:none"
       r="1.5"
       cy="-20"
       cx="36"
       transform="scale(1,-1)" />
    <circle
       id="circle4305"
       style="fill:none;stroke:#000000;stroke-width:0.1;stroke-miterlimit:4;stroke-dasharray:none"
       r="1.5"
       cy="-27"
       cx="31"
       transform="scale(1,-1)" />
  </g>
  <g
     transform="matrix(1,0,0,-1,0.62300909,295.56773)"
     id="g4307">
    <path
       inkscape:connector-curvature="0"
       style="fill:none;fill-rule:evenodd;stroke:#000000;stroke-width:0.1;stroke-miterlimit:4;stroke-dasharray:none"
       d="M 40,70.999993 A 2,2 0 0 0 37.999983,69 L 23.732051,69 A 2,2 0 0 0 22,70 2,2 0 0 1 20.267949,71 L 10,71 a 9,9 0 1 0 0,18 l 10.267949,0 A 2,2 0 0 1 22,90 a 2,2 0 0 0 1.732051,1 l 14.267932,0 A 2,2 0 0 0 39.99998,89.000002 L 40,70.999993"
       id="path4309" />
    <circle
       id="circle4311"
       style="fill:none;stroke:#000000;stroke-width:0.1;stroke-miterlimit:4;stroke-dasharray:none"
       r="5.5"
       cy="-80"
       cx="10"
       transform="scale(1,-1)" />
    <circle
       id="circle4313"
       style="fill:none;stroke:#000000;stroke-width:0.1;stroke-miterlimit:4;stroke-dasharray:none"
       r="1.5"
       cy="-73"
       cx="31"
       transform="scale(1,-1)" />
    <circle
       id="circle4315"
       style="fill:none;stroke:#000000;stroke-width:0.1;stroke-miterlimit:4;stroke-dasharray:none"
       r="1.5"
       cy="-80"
       cx="26"
       transform="scale(1,-1)" />
    <circle
       id="circle4317"
       style="fill:none;stroke:#000000;stroke-width:0.1;stroke-miterlimit:4;stroke-dasharray:none"
       r="1.5"
       cy="-80"
       cx="36"
       transform="scale(1,-1)" />
    <circle
       id="circle4319"
       style="fill:none;stroke:#000000;stroke-width:0.1;stroke-miterlimit:4;stroke-dasharray:none"
       r="1.5"
       cy="-87"
       cx="31"
       transform="scale(1,-1)" />
  </g>
  <g
     transform="matrix(1,0,0,-1,0.62300909,304.99067)"
     id="g4321">
    <circle
       id="circle4323"
       style="fill:none;stroke:#000000;stroke-width:0.1;stroke-miterlimit:4;stroke-dasharray:none"
       r="6.5"
       cy="-140"
       cx="50"
       transform="scale(1,-1)" />
    <path
       inkscape:connector-curvature="0"
       style="fill:none;fill-rule:evenodd;stroke:#000000;stroke-width:0.1;stroke-miterlimit:4;stroke-dasharray:none"
       d="m 50,151 a 11,11 0 0 0 0,-22 l -25.999991,0 A 2,2 0 0 0 22,130.99999 l 0,18.00002 A 2,2 0 0 0 24.000009,151 L 50,151"
       id="path4325" />
    <circle
       id="circle4327"
       style="fill:none;stroke:#000000;stroke-width:0.1;stroke-miterlimit:4;stroke-dasharray:none"
       r="1.5"
       cy="-133"
       cx="31"
       transform="scale(1,-1)" />
    <circle
       id="circle4329"
       style="fill:none;stroke:#000000;stroke-width:0.1;stroke-miterlimit:4;stroke-dasharray:none"
       r="1.5"
       cy="-140"
       cx="26"
       transform="scale(1,-1)" />
    <circle
       id="circle4331"
       style="fill:none;stroke:#000000;stroke-width:0.1;stroke-miterlimit:4;stroke-dasharray:none"
       r="1.5"
       cy="-140"
       cx="36"
       transform="scale(1,-1)" />
    <circle
       id="circle4333"
       style="fill:none;stroke:#000000;stroke-width:0.1;stroke-miterlimit:4;stroke-dasharray:none"
       r="1.5"
       cy="-147"
       cx="31"
       transform="scale(1,-1)" />
  </g>
  <g
     id="g4335"
     transform="matrix(1,0,0,-1,0.62300909,347.16255)">
    <path
       id="path4337"
       d="M 40,70.999993 A 2,2 0 0 0 37.999983,69 L 23.732051,69 A 2,2 0 0 0 22,70 2,2 0 0 1 20.267949,71 L 10,71 a 9,9 0 1 0 0,18 l 10.267949,0 A 2,2 0 0 1 22,90 a 2,2 0 0 0 1.732051,1 l 14.267932,0 A 2,2 0 0 0 39.99998,89.000002 L 40,70.999993"
       style="fill:none;fill-rule:evenodd;stroke:#000000;stroke-width:0.1;stroke-miterlimit:4;stroke-dasharray:none"
       inkscape:connector-curvature="0" />
    <circle
       transform="scale(1,-1)"
       cx="10"
       cy="-80"
       r="5.5"
       style="fill:none;stroke:#000000;stroke-width:0.1;stroke-miterlimit:4;stroke-dasharray:none"
       id="circle4339" />
    <circle
       transform="scale(1,-1)"
       cx="31"
       cy="-73"
       r="1.5"
       style="fill:none;stroke:#000000;stroke-width:0.1;stroke-miterlimit:4;stroke-dasharray:none"
       id="circle4341" />
    <circle
       transform="scale(1,-1)"
       cx="26"
       cy="-80"
       r="1.5"
       style="fill:none;stroke:#000000;stroke-width:0.1;stroke-miterlimit:4;stroke-dasharray:none"
       id="circle4343" />
    <circle
       transform="scale(1,-1)"
       cx="36"
       cy="-80"
       r="1.5"
       style="fill:none;stroke:#000000;stroke-width:0.1;stroke-miterlimit:4;stroke-dasharray:none"
       id="circle4345" />
    <circle
       transform="scale(1,-1)"
       cx="31"
       cy="-87"
       r="1.5"
       style="fill:none;stroke:#000000;stroke-width:0.1;stroke-miterlimit:4;stroke-dasharray:none"
       id="circle4347" />
  </g>
</svg>
