<?xml version="1.0" encoding="UTF-8" standalone="no"?>
<svg
   xmlns:dc="http://purl.org/dc/elements/1.1/"
   xmlns:cc="http://creativecommons.org/ns#"
   xmlns:rdf="http://www.w3.org/1999/02/22-rdf-syntax-ns#"
   xmlns:svg="http://www.w3.org/2000/svg"
   xmlns="http://www.w3.org/2000/svg"
   xmlns:sodipodi="http://sodipodi.sourceforge.net/DTD/sodipodi-0.dtd"
   xmlns:inkscape="http://www.inkscape.org/namespaces/inkscape"
   version="1.1"
   width="297mm"
   height="210mm"
   viewBox="0 0 297 210"
   id="svg2"
   inkscape:version="0.91 r13725"
   sodipodi:docname="parts-drawing.svg">
  <metadata
     id="metadata119">
    <rdf:RDF>
      <cc:Work
         rdf:about="">
        <dc:format>image/svg+xml</dc:format>
        <dc:type
           rdf:resource="http://purl.org/dc/dcmitype/StillImage" />
        <dc:title></dc:title>
      </cc:Work>
    </rdf:RDF>
  </metadata>
  <sodipodi:namedview
     pagecolor="#ffffff"
     bordercolor="#666666"
     borderopacity="1"
     objecttolerance="10"
     gridtolerance="10"
     guidetolerance="10"
     inkscape:pageopacity="0"
     inkscape:pageshadow="2"
     inkscape:window-width="1920"
     inkscape:window-height="996"
     id="namedview117"
     showgrid="false"
     inkscape:zoom="0.89707532"
     inkscape:cx="419.39285"
     inkscape:cy="327.13892"
     inkscape:window-x="0"
     inkscape:window-y="29"
     inkscape:window-maximized="1"
     inkscape:current-layer="svg2" />
  <!-- Working space 0 0 297 210 -->
  <defs
     id="defs4">
    <radialGradient
       id="radialGradient3661"
       gradientUnits="userSpaceOnUse"
       cy="29.149"
       cx="282.65"
       gradientTransform="matrix(.14777 .23089 -.24680 .15795 -26.318 -62.617)"
       r="19.571">
      <stop
         stop-color="#71b2f8"
         offset="0"
         id="stop7" />
      <stop
         stop-color="#002795"
         offset="1"
         id="stop9" />
    </radialGradient>
    <radialGradient
       id="radialGradient3817"
       gradientUnits="userSpaceOnUse"
       cy="33.9"
       cx="270.58"
       gradientTransform="matrix(.26631 .065024 -.17931 .73438 -60.668 -36.938)"
       r="19.571">
      <stop
         stop-color="#ff6d0f"
         offset="0"
         id="stop12" />
      <stop
         stop-color="#ff1000"
         offset="1"
         id="stop14" />
    </radialGradient>
  </defs>
  <!-- Set display:none to hide FreeCAD Logo -->
  <g
     id="g4355">
    <path
       id="Sketch011001_w0000"
       d="M 37.999983,61 A 2,2 0 0 0 39.99998,59.000002 L 40,40.999993 A 2,2 0 0 0 37.999983,39 L 24,39 a 2,2 0 0 0 -2,2 l 0,18 a 2,2 0 0 0 2,2 l 13.999983,0"
       style="fill:none;fill-rule:evenodd;stroke:#000000;stroke-width:0.1;stroke-miterlimit:4;stroke-dasharray:none"
       inkscape:connector-curvature="0" />
    <circle
       transform="scale(1,-1)"
       cx="26"
       cy="-50"
       r="1.5"
       style="fill:none;stroke:#000000;stroke-width:0.1;stroke-miterlimit:4;stroke-dasharray:none"
       id="circle23" />
    <circle
       transform="scale(1,-1)"
       cx="36"
       cy="-50"
       r="1.5"
       style="fill:none;stroke:#000000;stroke-width:0.1;stroke-miterlimit:4;stroke-dasharray:none"
       id="circle25" />
    <circle
       transform="scale(1,-1)"
       cx="31"
       cy="-43"
       r="1.5"
       style="fill:none;stroke:#000000;stroke-width:0.1;stroke-miterlimit:4;stroke-dasharray:none"
       id="circle27" />
    <circle
       transform="scale(1,-1)"
       cx="31"
       cy="-57"
       r="1.5"
       style="fill:none;stroke:#000000;stroke-width:0.1;stroke-miterlimit:4;stroke-dasharray:none"
       id="circle29" />
  </g>
  <g
     id="g4362">
    <path
       id="Sketch012001_w0000"
       d="M 37.999983,31 A 2,2 0 0 0 39.99998,29.000002 L 40,10.999993 A 2,2 0 0 0 37.999983,9 L 23.732051,9 A 2,2 0 0 0 22,10 2,2 0 0 1 20.267949,11 l -7.865908,0 a 2,2 0 0 0 -1.149938,3.636351 17.97947,17.97947 0 0 0 7.441229,3.034278 9,9 0 0 1 0,4.658742 17.97947,17.97947 0 0 0 -7.441228,3.034278 A 2,2 0 0 0 12.402041,29 l 7.865908,0 A 2,2 0 0 1 22,30 a 2,2 0 0 0 1.732051,1 l 14.267932,0"
       style="fill:none;fill-rule:evenodd;stroke:#000000;stroke-width:0.1;stroke-miterlimit:4;stroke-dasharray:none"
       inkscape:connector-curvature="0" />
    <circle
       transform="scale(1,-1)"
       cx="31"
       cy="-13"
       r="1.5"
       style="fill:none;stroke:#000000;stroke-width:0.1;stroke-miterlimit:4;stroke-dasharray:none"
       id="circle32" />
    <circle
       transform="scale(1,-1)"
       cx="26"
       cy="-20"
       r="1.5"
       style="fill:none;stroke:#000000;stroke-width:0.1;stroke-miterlimit:4;stroke-dasharray:none"
       id="circle34" />
    <circle
       transform="scale(1,-1)"
       cx="36"
       cy="-20"
       r="1.5"
       style="fill:none;stroke:#000000;stroke-width:0.1;stroke-miterlimit:4;stroke-dasharray:none"
       id="circle36" />
    <circle
       transform="scale(1,-1)"
       cx="31"
       cy="-27"
       r="1.5"
       style="fill:none;stroke:#000000;stroke-width:0.1;stroke-miterlimit:4;stroke-dasharray:none"
       id="circle38" />
  </g>
  <g
     id="g4347">
    <path
       id="Sketch012002_w0000"
       d="M 40,70.999993 A 2,2 0 0 0 37.999983,69 L 23.732051,69 A 2,2 0 0 0 22,70 2,2 0 0 1 20.267949,71 L 10,71 a 9,9 0 1 0 0,18 l 10.267949,0 A 2,2 0 0 1 22,90 a 2,2 0 0 0 1.732051,1 l 14.267932,0 A 2,2 0 0 0 39.99998,89.000002 L 40,70.999993"
       style="fill:none;fill-rule:evenodd;stroke:#000000;stroke-width:0.1;stroke-miterlimit:4;stroke-dasharray:none"
       inkscape:connector-curvature="0" />
    <circle
       transform="scale(1,-1)"
       cx="10"
       cy="-80"
       r="5.5"
       style="fill:none;stroke:#000000;stroke-width:0.1;stroke-miterlimit:4;stroke-dasharray:none"
       id="circle41" />
    <circle
       transform="scale(1,-1)"
       cx="31"
       cy="-73"
       r="1.5"
       style="fill:none;stroke:#000000;stroke-width:0.1;stroke-miterlimit:4;stroke-dasharray:none"
       id="circle43" />
    <circle
       transform="scale(1,-1)"
       cx="26"
       cy="-80"
       r="1.5"
       style="fill:none;stroke:#000000;stroke-width:0.1;stroke-miterlimit:4;stroke-dasharray:none"
       id="circle45" />
    <circle
       transform="scale(1,-1)"
       cx="36"
       cy="-80"
       r="1.5"
       style="fill:none;stroke:#000000;stroke-width:0.1;stroke-miterlimit:4;stroke-dasharray:none"
       id="circle47" />
    <circle
       transform="scale(1,-1)"
       cx="31"
       cy="-87"
       r="1.5"
       style="fill:none;stroke:#000000;stroke-width:0.1;stroke-miterlimit:4;stroke-dasharray:none"
       id="circle49" />
  </g>
  <g
     id="g4307">
    <circle
       transform="scale(1,-1)"
       cx="50"
       cy="-110"
       r="8"
       style="fill:none;stroke:#000000;stroke-width:0.1;stroke-miterlimit:4;stroke-dasharray:none"
       id="circle51" />
    <path
       id="Sketch009001_w0000"
       d="M 50,121 A 11,11 0 0 0 50,99 L 24.000009,99 A 2,2 0 0 0 22,100.99999 l 0,18.00002 A 2,2 0 0 0 24.000009,121 L 50,121"
       style="fill:none;fill-rule:evenodd;stroke:#000000;stroke-width:0.1;stroke-miterlimit:4;stroke-dasharray:none"
       inkscape:connector-curvature="0" />
    <circle
       transform="scale(1,-1)"
       cx="31"
       cy="-103"
       r="1.5"
       style="fill:none;stroke:#000000;stroke-width:0.1;stroke-miterlimit:4;stroke-dasharray:none"
       id="circle54" />
    <circle
       transform="scale(1,-1)"
       cx="26"
       cy="-110"
       r="1.5"
       style="fill:none;stroke:#000000;stroke-width:0.1;stroke-miterlimit:4;stroke-dasharray:none"
       id="circle56" />
    <circle
       transform="scale(1,-1)"
       cx="36"
       cy="-110"
       r="1.5"
       style="fill:none;stroke:#000000;stroke-width:0.1;stroke-miterlimit:4;stroke-dasharray:none"
       id="circle58" />
    <circle
       transform="scale(1,-1)"
       cx="31"
       cy="-117"
       r="1.5"
       style="fill:none;stroke:#000000;stroke-width:0.1;stroke-miterlimit:4;stroke-dasharray:none"
       id="circle60" />
  </g>
  <g
     id="g4299">
    <circle
       transform="scale(1,-1)"
       cx="50"
       cy="-140"
       r="6.5"
       style="fill:none;stroke:#000000;stroke-width:0.1;stroke-miterlimit:4;stroke-dasharray:none"
       id="circle62" />
    <path
       id="Sketch010001_w0000"
       d="m 50,151 a 11,11 0 0 0 0,-22 l -25.999991,0 A 2,2 0 0 0 22,130.99999 l 0,18.00002 A 2,2 0 0 0 24.000009,151 L 50,151"
       style="fill:none;fill-rule:evenodd;stroke:#000000;stroke-width:0.1;stroke-miterlimit:4;stroke-dasharray:none"
       inkscape:connector-curvature="0" />
    <circle
       transform="scale(1,-1)"
       cx="31"
       cy="-133"
       r="1.5"
       style="fill:none;stroke:#000000;stroke-width:0.1;stroke-miterlimit:4;stroke-dasharray:none"
       id="circle65" />
    <circle
       transform="scale(1,-1)"
       cx="26"
       cy="-140"
       r="1.5"
       style="fill:none;stroke:#000000;stroke-width:0.1;stroke-miterlimit:4;stroke-dasharray:none"
       id="circle67" />
    <circle
       transform="scale(1,-1)"
       cx="36"
       cy="-140"
       r="1.5"
       style="fill:none;stroke:#000000;stroke-width:0.1;stroke-miterlimit:4;stroke-dasharray:none"
       id="circle69" />
    <circle
       transform="scale(1,-1)"
       cx="31"
       cy="-147"
       r="1.5"
       style="fill:none;stroke:#000000;stroke-width:0.1;stroke-miterlimit:4;stroke-dasharray:none"
       id="circle71" />
  </g>
  <g
     id="g4315">
    <circle
       transform="scale(1,-1)"
       cx="100"
       cy="-110"
       r="7.9499998"
       style="fill:none;stroke:#000000;stroke-width:0.1;stroke-miterlimit:4;stroke-dasharray:none"
       id="circle73" />
    <path
       id="Sketch012003_w0000"
       d="m 100,121 a 11,11 0 0 0 0,-22 L 74.000009,99 A 2,2 0 0 0 72,100.99999 l 0,18.00002 A 2,2 0 0 0 74.000009,121 L 100,121"
       style="fill:none;fill-rule:evenodd;stroke:#000000;stroke-width:0.1;stroke-miterlimit:4;stroke-dasharray:none"
       inkscape:connector-curvature="0" />
    <circle
       transform="scale(1,-1)"
       cx="81"
       cy="-103"
       r="1.5"
       style="fill:none;stroke:#000000;stroke-width:0.1;stroke-miterlimit:4;stroke-dasharray:none"
       id="circle76" />
    <circle
       transform="scale(1,-1)"
       cx="76"
       cy="-110"
       r="1.5"
       style="fill:none;stroke:#000000;stroke-width:0.1;stroke-miterlimit:4;stroke-dasharray:none"
       id="circle78" />
    <circle
       transform="scale(1,-1)"
       cx="86"
       cy="-110"
       r="1.5"
       style="fill:none;stroke:#000000;stroke-width:0.1;stroke-miterlimit:4;stroke-dasharray:none"
       id="circle80" />
    <circle
       transform="scale(1,-1)"
       cx="81"
       cy="-117"
       r="1.5"
       style="fill:none;stroke:#000000;stroke-width:0.1;stroke-miterlimit:4;stroke-dasharray:none"
       id="circle82" />
  </g>
  <g
     id="g4323">
    <circle
       transform="scale(1,-1)"
       cx="150"
       cy="-110"
       r="7.9000001"
       style="fill:none;stroke:#000000;stroke-width:0.1;stroke-miterlimit:4;stroke-dasharray:none"
       id="circle84" />
    <path
       id="Sketch012004_w0000"
       d="m 150,121 a 11,11 0 0 0 0,-22 l -25.99999,0 A 2,2 0 0 0 122,100.99999 l 0,18.00002 A 2,2 0 0 0 124.00001,121 L 150,121"
       style="fill:none;fill-rule:evenodd;stroke:#000000;stroke-width:0.1;stroke-miterlimit:4;stroke-dasharray:none"
       inkscape:connector-curvature="0" />
    <circle
       transform="scale(1,-1)"
       cx="131"
       cy="-103"
       r="1.5"
       style="fill:none;stroke:#000000;stroke-width:0.1;stroke-miterlimit:4;stroke-dasharray:none"
       id="circle87" />
    <circle
       transform="scale(1,-1)"
       cx="126"
       cy="-110"
       r="1.5"
       style="fill:none;stroke:#000000;stroke-width:0.1;stroke-miterlimit:4;stroke-dasharray:none"
       id="circle89" />
    <circle
       transform="scale(1,-1)"
       cx="136"
       cy="-110"
       r="1.5"
       style="fill:none;stroke:#000000;stroke-width:0.1;stroke-miterlimit:4;stroke-dasharray:none"
       id="circle91" />
    <circle
       transform="scale(1,-1)"
       cx="131"
       cy="-117"
       r="1.5"
       style="fill:none;stroke:#000000;stroke-width:0.1;stroke-miterlimit:4;stroke-dasharray:none"
       id="circle93" />
  </g>
  <g
     id="g4339">
    <path
       id="Sketch012005_w0000"
       d="M 90,70.999993 A 2,2 0 0 0 87.999983,69 L 73.732051,69 A 2,2 0 0 0 72,70 2,2 0 0 1 70.267949,71 L 60,71 a 9,9 0 1 0 0,18 l 10.267949,0 A 2,2 0 0 1 72,90 a 2,2 0 0 0 1.732051,1 l 14.267932,0 A 2,2 0 0 0 89.99998,89.000002 L 90,70.999993"
       style="fill:none;fill-rule:evenodd;stroke:#000000;stroke-width:0.1;stroke-miterlimit:4;stroke-dasharray:none"
       inkscape:connector-curvature="0" />
    <circle
       transform="scale(1,-1)"
       cx="60"
       cy="-80"
       r="5.4499998"
       style="fill:none;stroke:#000000;stroke-width:0.1;stroke-miterlimit:4;stroke-dasharray:none"
       id="circle96" />
    <circle
       transform="scale(1,-1)"
       cx="81"
       cy="-73"
       r="1.5"
       style="fill:none;stroke:#000000;stroke-width:0.1;stroke-miterlimit:4;stroke-dasharray:none"
       id="circle98" />
    <circle
       transform="scale(1,-1)"
       cx="76"
       cy="-80"
       r="1.5"
       style="fill:none;stroke:#000000;stroke-width:0.1;stroke-miterlimit:4;stroke-dasharray:none"
       id="circle100" />
    <circle
       transform="scale(1,-1)"
       cx="86"
       cy="-80"
       r="1.5"
       style="fill:none;stroke:#000000;stroke-width:0.1;stroke-miterlimit:4;stroke-dasharray:none"
       id="circle102" />
    <circle
       transform="scale(1,-1)"
       cx="81"
       cy="-87"
       r="1.5"
       style="fill:none;stroke:#000000;stroke-width:0.1;stroke-miterlimit:4;stroke-dasharray:none"
       id="circle104" />
  </g>
  <g
     id="g4331">
    <path
       id="Sketch012006_w0000"
       d="M 140,70.999993 A 2,2 0 0 0 137.99998,69 l -14.26793,0 A 2,2 0 0 0 122,70 2,2 0 0 1 120.26795,71 L 110,71 a 9,9 0 1 0 0,18 l 10.26795,0 A 2,2 0 0 1 122,90 a 2,2 0 0 0 1.73205,1 l 14.26793,0 a 2,2 0 0 0 2,-1.999998 L 140,70.999993"
       style="fill:none;fill-rule:evenodd;stroke:#000000;stroke-width:0.1;stroke-miterlimit:4;stroke-dasharray:none"
       inkscape:connector-curvature="0" />
    <circle
       transform="scale(1,-1)"
       cx="110"
       cy="-80"
       r="5.4000001"
       style="fill:none;stroke:#000000;stroke-width:0.1;stroke-miterlimit:4;stroke-dasharray:none"
       id="circle107" />
    <circle
       transform="scale(1,-1)"
       cx="131"
       cy="-73"
       r="1.5"
       style="fill:none;stroke:#000000;stroke-width:0.1;stroke-miterlimit:4;stroke-dasharray:none"
       id="circle109" />
    <circle
       transform="scale(1,-1)"
       cx="126"
       cy="-80"
       r="1.5"
       style="fill:none;stroke:#000000;stroke-width:0.1;stroke-miterlimit:4;stroke-dasharray:none"
       id="circle111" />
    <circle
       transform="scale(1,-1)"
       cx="136"
       cy="-80"
       r="1.5"
       style="fill:none;stroke:#000000;stroke-width:0.1;stroke-miterlimit:4;stroke-dasharray:none"
       id="circle113" />
    <circle
       transform="scale(1,-1)"
       cx="131"
       cy="-87"
       r="1.5"
       style="fill:none;stroke:#000000;stroke-width:0.1;stroke-miterlimit:4;stroke-dasharray:none"
       id="circle115" />
  </g>
</svg>
